<mxfile><diagram id="zp22cR85dDjObkLCwMI5" name="Page-1"><mxGraphModel dx="2860" dy="1344" grid="0" gridSize="10" guides="1" tooltips="1" connect="1" arrows="1" fold="1" page="1" pageScale="1" pageWidth="850" pageHeight="1100" math="0" shadow="0"><root><mxCell id="0"/><mxCell id="1" parent="0"/><mxCell id="136" value="" style="rounded=0;whiteSpace=wrap;html=1;labelBackgroundColor=none;fontFamily=Helvetica;fontSize=18;fontColor=#000000;strokeColor=#BAC8D3;strokeWidth=2;fillColor=#FFFFFF;" parent="1" vertex="1"><mxGeometry x="150" y="540" width="2340" height="1865" as="geometry"/></mxCell><mxCell id="187" value="" style="group" parent="1" vertex="1" connectable="0"><mxGeometry x="691" y="1199" width="449" height="410" as="geometry"/></mxCell><mxCell id="188" value="" style="strokeColor=#FFFFFF;fillColor=#e6e9e9;fontSize=18;strokeWidth=2;fontFamily=Helvetica;html=1;opacity=90;" parent="187" vertex="1"><mxGeometry width="448.99999999999994" height="400" as="geometry"/></mxCell><mxCell id="a8QK_xVsvoP_7gLjCRSt-374" value="Merge&lt;br&gt;Request" style="shape=actor;whiteSpace=wrap;html=1;labelBackgroundColor=none;fontFamily=Helvetica;fontSize=18;fontColor=#545b64;strokeColor=none;strokeWidth=2;fillColor=#545b64;verticalAlign=middle;labelPosition=right;verticalLabelPosition=middle;align=left;" vertex="1" parent="188"><mxGeometry x="155.40629141998764" y="45" width="62.805248740832376" height="70" as="geometry"/></mxCell><mxCell id="189" value="&lt;font style=&quot;font-size: 12px&quot;&gt;Develop&lt;/font&gt;&lt;span style=&quot;font-size: 12px&quot;&gt;&amp;nbsp;/&amp;nbsp;&lt;/span&gt;&lt;span style=&quot;font-size: 12px&quot;&gt;bugfix&lt;/span&gt;" style="text;html=1;strokeColor=none;fillColor=none;align=center;verticalAlign=middle;whiteSpace=wrap;rounded=0;labelBackgroundColor=none;fontFamily=Helvetica;fontSize=18;fontColor=#000000;" parent="187" vertex="1"><mxGeometry x="3.923647276899991" width="95.15835466501898" height="30" as="geometry"/></mxCell><mxCell id="137" value="" style="group" parent="1" vertex="1" connectable="0"><mxGeometry x="2038.98" y="1601" width="451.02" height="400" as="geometry"/></mxCell><mxCell id="138" value="" style="strokeColor=#FFFFFF;fillColor=#AAB7B8;fontSize=18;strokeWidth=2;fontFamily=Helvetica;html=1;opacity=90;labelBackgroundColor=none;" parent="137" vertex="1"><mxGeometry width="451.02" height="400" as="geometry"/></mxCell><mxCell id="139" value="&lt;span style=&quot;font-size: 12px&quot;&gt;Production /&amp;nbsp;&lt;/span&gt;&lt;span style=&quot;font-size: 12px&quot;&gt;hotfix&lt;/span&gt;" style="text;html=1;strokeColor=none;fillColor=none;align=center;verticalAlign=middle;whiteSpace=wrap;rounded=0;labelBackgroundColor=none;fontFamily=Helvetica;fontSize=18;fontColor=#000000;" parent="137" vertex="1"><mxGeometry x="6.023622666666666" y="3.31" width="114.24837733333332" height="33.06" as="geometry"/></mxCell><mxCell id="140" value="" style="group" parent="1" vertex="1" connectable="0"><mxGeometry x="1137.98" y="2760" width="1976.8600000000001" height="480" as="geometry"/></mxCell><mxCell id="141" value="" style="strokeColor=#FFFFFF;fillColor=#AAB7B8;fontSize=18;strokeWidth=2;fontFamily=Helvetica;html=1;opacity=90;labelBackgroundColor=none;" parent="140" vertex="1"><mxGeometry y="-1159" width="450" height="400" as="geometry"/></mxCell><mxCell id="142" value="&lt;font style=&quot;font-size: 12px&quot;&gt;Test&lt;/font&gt;&lt;span style=&quot;font-size: 12px&quot;&gt;&amp;nbsp;/&amp;nbsp;&lt;/span&gt;&lt;span style=&quot;font-size: 12px&quot;&gt;hotfix&lt;/span&gt;" style="text;html=1;strokeColor=none;fillColor=none;align=center;verticalAlign=middle;whiteSpace=wrap;rounded=0;labelBackgroundColor=none;fontFamily=Helvetica;fontSize=18;fontColor=#000000;" parent="140" vertex="1"><mxGeometry x="6.009999999999991" y="-1155.6942148760331" width="108" height="33.057851239669425" as="geometry"/></mxCell><mxCell id="143" value="" style="group" parent="1" vertex="1" connectable="0"><mxGeometry x="690" y="1601" width="451" height="400" as="geometry"/></mxCell><mxCell id="144" value="" style="strokeColor=#FFFFFF;fillColor=#AAB7B8;fontSize=18;strokeWidth=2;fontFamily=Helvetica;html=1;opacity=90;labelBackgroundColor=none;" parent="143" vertex="1"><mxGeometry width="450.99999999999994" height="400" as="geometry"/></mxCell><mxCell id="145" value="&lt;font style=&quot;font-size: 12px&quot;&gt;Develop&lt;/font&gt;&lt;span style=&quot;font-size: 12px&quot;&gt;&amp;nbsp;/ hotfix&lt;/span&gt;&lt;span style=&quot;color: rgba(0 , 0 , 0 , 0) ; font-family: monospace ; font-size: 0px&quot;&gt;%3CmxGraphModel%3E%3Croot%3E%3CmxCell%20id%3D%220%22%2F%3E%3CmxCell%20id%3D%221%22%20parent%3D%220%22%2F%3E%3CmxCell%20id%3D%222%22%20value%3D%22release%2F*%22%20style%3D%22strokeColor%3Dnone%3BfillColor%3D%23ec7211%3BfontSize%3D24%3BstrokeWidth%3D2%3Bhorizontal%3D0%3BfontFamily%3DHelvetica%3Bhtml%3D1%3BfontColor%3D%23FFFFFF%3BfontStyle%3D0%22%20vertex%3D%221%22%20parent%3D%221%22%3E%3CmxGeometry%20x%3D%22150%22%20y%3D%222360%22%20width%3D%2286%22%20height%3D%22400%22%20as%3D%22geometry%22%2F%3E%3C%2FmxCell%3E%3CmxCell%20id%3D%223%22%20value%3D%22%22%20style%3D%22group%22%20vertex%3D%221%22%20connectable%3D%220%22%20parent%3D%221%22%3E%3CmxGeometry%20x%3D%22237.98%22%20y%3D%222360%22%20width%3D%22450%22%20height%3D%22400%22%20as%3D%22geometry%22%2F%3E%3C%2FmxCell%3E%3CmxCell%20id%3D%224%22%20value%3D%22%22%20style%3D%22strokeColor%3D%23FFFFFF%3BfillColor%3D%23D5DBDB%3BfontSize%3D18%3BstrokeWidth%3D2%3BfontFamily%3DHelvetica%3Bhtml%3D1%3Bopacity%3D60%3B%22%20vertex%3D%221%22%20parent%3D%223%22%3E%3CmxGeometry%20width%3D%22450%22%20height%3D%22400%22%20as%3D%22geometry%22%2F%3E%3C%2FmxCell%3E%3CmxCell%20id%3D%225%22%20value%3D%22%26lt%3Bfont%20style%3D%26quot%3Bfont-size%3A%2012px%26quot%3B%26gt%3BSandbox%26lt%3B%2Ffont%26gt%3B%26lt%3Bspan%20style%3D%26quot%3Bfont-size%3A%2012px%26quot%3B%26gt%3B%26amp%3Bnbsp%3B%2F%20release%26lt%3B%2Fspan%26gt%3B%22%20style%3D%22text%3Bhtml%3D1%3BstrokeColor%3Dnone%3BfillColor%3Dnone%3Balign%3Dcenter%3BverticalAlign%3Dmiddle%3BwhiteSpace%3Dwrap%3Brounded%3D0%3BlabelBackgroundColor%3Dnone%3BfontFamily%3DHelvetica%3BfontSize%3D18%3BfontColor%3D%23000000%3B%22%20vertex%3D%221%22%20parent%3D%223%22%3E%3CmxGeometry%20x%3D%226.009999999999991%22%20y%3D%223.3057851239669422%22%20width%3D%22108%22%20height%3D%2233.057851239669425%22%20as%3D%22geometry%22%2F%3E%3C%2FmxCell%3E%3CmxCell%20id%3D%226%22%20value%3D%22%22%20style%3D%22group%22%20vertex%3D%221%22%20connectable%3D%220%22%20parent%3D%221%22%3E%3CmxGeometry%20x%3D%221137.98%22%20y%3D%222360%22%20width%3D%22450%22%20height%3D%22400%22%20as%3D%22geometry%22%2F%3E%3C%2FmxCell%3E%3CmxCell%20id%3D%227%22%20value%3D%22%22%20style%3D%22strokeColor%3D%23FFFFFF%3BfillColor%3D%23D5DBDB%3BfontSize%3D18%3BstrokeWidth%3D2%3BfontFamily%3DHelvetica%3Bhtml%3D1%3Bopacity%3D60%3B%22%20vertex%3D%221%22%20parent%3D%226%22%3E%3CmxGeometry%20width%3D%22450%22%20height%3D%22400%22%20as%3D%22geometry%22%2F%3E%3C%2FmxCell%3E%3CmxCell%20id%3D%228%22%20value%3D%22%26lt%3Bfont%20style%3D%26quot%3Bfont-size%3A%2012px%26quot%3B%26gt%3BTest%26lt%3B%2Ffont%26gt%3B%26lt%3Bspan%20style%3D%26quot%3Bfont-size%3A%2012px%26quot%3B%26gt%3B%26amp%3Bnbsp%3B%2F%26amp%3Bnbsp%3B%26lt%3B%2Fspan%26gt%3B%26lt%3Bspan%20style%3D%26quot%3Bfont-size%3A%2012px%26quot%3B%26gt%3Brelease%26lt%3B%2Fspan%26gt%3B%22%20style%3D%22text%3Bhtml%3D1%3BstrokeColor%3Dnone%3BfillColor%3Dnone%3Balign%3Dcenter%3BverticalAlign%3Dmiddle%3BwhiteSpace%3Dwrap%3Brounded%3D0%3BlabelBackgroundColor%3Dnone%3BfontFamily%3DHelvetica%3BfontSize%3D18%3BfontColor%3D%23000000%3B%22%20vertex%3D%221%22%20parent%3D%226%22%3E%3CmxGeometry%20x%3D%226.009999999999991%22%20y%3D%223.3057851239669422%22%20width%3D%22108%22%20height%3D%2233.057851239669425%22%20as%3D%22geometry%22%2F%3E%3C%2FmxCell%3E%3CmxCell%20id%3D%229%22%20value%3D%22%22%20style%3D%22group%22%20vertex%3D%221%22%20connectable%3D%220%22%20parent%3D%221%22%3E%3CmxGeometry%20x%3D%221587.98%22%20y%3D%222360%22%20width%3D%22450%22%20height%3D%22400%22%20as%3D%22geometry%22%2F%3E%3C%2FmxCell%3E%3CmxCell%20id%3D%2210%22%20value%3D%22%22%20style%3D%22strokeColor%3D%23FFFFFF%3BfillColor%3D%23D5DBDB%3BfontSize%3D18%3BstrokeWidth%3D2%3BfontFamily%3DHelvetica%3Bhtml%3D1%3Bopacity%3D60%3B%22%20vertex%3D%221%22%20parent%3D%229%22%3E%3CmxGeometry%20width%3D%22450%22%20height%3D%22400%22%20as%3D%22geometry%22%2F%3E%3C%2FmxCell%3E%3CmxCell%20id%3D%2211%22%20value%3D%22%26lt%3Bfont%20style%3D%26quot%3Bfont-size%3A%2012px%26quot%3B%26gt%3BStage%26lt%3B%2Ffont%26gt%3B%26lt%3Bspan%20style%3D%26quot%3Bfont-size%3A%2012px%26quot%3B%26gt%3B%26amp%3Bnbsp%3B%2F%26amp%3Bnbsp%3B%26lt%3B%2Fspan%26gt%3B%26lt%3Bspan%20style%3D%26quot%3Bfont-size%3A%2012px%26quot%3B%26gt%3Brelease%26lt%3B%2Fspan%26gt%3B%22%20style%3D%22text%3Bhtml%3D1%3BstrokeColor%3Dnone%3BfillColor%3Dnone%3Balign%3Dcenter%3BverticalAlign%3Dmiddle%3BwhiteSpace%3Dwrap%3Brounded%3D0%3BlabelBackgroundColor%3Dnone%3BfontFamily%3DHelvetica%3BfontSize%3D18%3BfontColor%3D%23000000%3B%22%20vertex%3D%221%22%20parent%3D%229%22%3E%3CmxGeometry%20x%3D%226.009999999999991%22%20y%3D%223.3057851239669422%22%20width%3D%22108%22%20height%3D%2233.057851239669425%22%20as%3D%22geometry%22%2F%3E%3C%2FmxCell%3E%3CmxCell%20id%3D%2212%22%20value%3D%22%22%20style%3D%22group%22%20vertex%3D%221%22%20connectable%3D%220%22%20parent%3D%221%22%3E%3CmxGeometry%20x%3D%222037.98%22%20y%3D%222360%22%20width%3D%22450%22%20height%3D%22400%22%20as%3D%22geometry%22%2F%3E%3C%2FmxCell%3E%3CmxCell%20id%3D%2213%22%20value%3D%22%22%20style%3D%22strokeColor%3D%23FFFFFF%3BfillColor%3D%23D5DBDB%3BfontSize%3D18%3BstrokeWidth%3D2%3BfontFamily%3DHelvetica%3Bhtml%3D1%3Bopacity%3D60%3B%22%20vertex%3D%221%22%20parent%3D%2212%22%3E%3CmxGeometry%20width%3D%22450%22%20height%3D%22400%22%20as%3D%22geometry%22%2F%3E%3C%2FmxCell%3E%3CmxCell%20id%3D%2214%22%20value%3D%22%26lt%3Bspan%20style%3D%26quot%3Bfont-size%3A%2012px%26quot%3B%26gt%3BProduction%20%2F%20release%26lt%3B%2Fspan%26gt%3B%22%20style%3D%22text%3Bhtml%3D1%3BstrokeColor%3Dnone%3BfillColor%3Dnone%3Balign%3Dcenter%3BverticalAlign%3Dmiddle%3BwhiteSpace%3Dwrap%3Brounded%3D0%3BlabelBackgroundColor%3Dnone%3BfontFamily%3DHelvetica%3BfontSize%3D18%3BfontColor%3D%23000000%3B%22%20vertex%3D%221%22%20parent%3D%2212%22%3E%3CmxGeometry%20x%3D%226.01%22%20y%3D%223.31%22%20width%3D%22113.99%22%20height%3D%2233.06%22%20as%3D%22geometry%22%2F%3E%3C%2FmxCell%3E%3CmxCell%20id%3D%2215%22%20value%3D%22%22%20style%3D%22group%22%20vertex%3D%221%22%20connectable%3D%220%22%20parent%3D%221%22%3E%3CmxGeometry%20x%3D%22690%22%20y%3D%222360%22%20width%3D%22450%22%20height%3D%22400%22%20as%3D%22geometry%22%2F%3E%3C%2FmxCell%3E%3CmxCell%20id%3D%2216%22%20value%3D%22%22%20style%3D%22strokeColor%3D%23FFFFFF%3BfillColor%3D%23D5DBDB%3BfontSize%3D18%3BstrokeWidth%3D2%3BfontFamily%3DHelvetica%3Bhtml%3D1%3Bopacity%3D60%3B%22%20vertex%3D%221%22%20parent%3D%2215%22%3E%3CmxGeometry%20width%3D%22450%22%20height%3D%22400%22%20as%3D%22geometry%22%2F%3E%3C%2FmxCell%3E%3CmxCell%20id%3D%2217%22%20value%3D%22%26lt%3Bfont%20style%3D%26quot%3Bfont-size%3A%2012px%26quot%3B%26gt%3BDevelop%26lt%3B%2Ffont%26gt%3B%26lt%3Bspan%20style%3D%26quot%3Bfont-size%3A%2012px%26quot%3B%26gt%3B%26amp%3Bnbsp%3B%2F%26amp%3Bnbsp%3B%26lt%3B%2Fspan%26gt%3B%26lt%3Bspan%20style%3D%26quot%3Bfont-size%3A%2012px%26quot%3B%26gt%3Brelease%26lt%3B%2Fspan%26gt%3B%22%20style%3D%22text%3Bhtml%3D1%3BstrokeColor%3Dnone%3BfillColor%3Dnone%3Balign%3Dcenter%3BverticalAlign%3Dmiddle%3BwhiteSpace%3Dwrap%3Brounded%3D0%3BlabelBackgroundColor%3Dnone%3BfontFamily%3DHelvetica%3BfontSize%3D18%3BfontColor%3D%23000000%3B%22%20vertex%3D%221%22%20parent%3D%2215%22%3E%3CmxGeometry%20x%3D%226.009999999999991%22%20y%3D%223.3057851239669422%22%20width%3D%22108%22%20height%3D%2233.057851239669425%22%20as%3D%22geometry%22%2F%3E%3C%2FmxCell%3E%3C%2Froot%3E%3C%2FmxGraphModel%3E&lt;/span&gt;" style="text;html=1;strokeColor=none;fillColor=none;align=center;verticalAlign=middle;whiteSpace=wrap;rounded=0;labelBackgroundColor=none;fontFamily=Helvetica;fontSize=18;fontColor=#000000;" parent="143" vertex="1"><mxGeometry x="6.023355555555546" y="3.3057851239669422" width="108.24" height="33.057851239669425" as="geometry"/></mxCell><mxCell id="a8QK_xVsvoP_7gLjCRSt-391" value="&lt;font style=&quot;font-size: 12px&quot;&gt;Develop&lt;/font&gt;&lt;span style=&quot;font-size: 12px&quot;&gt;&amp;nbsp;/ hotfix&lt;/span&gt;&lt;span style=&quot;color: rgba(0 , 0 , 0 , 0) ; font-family: monospace ; font-size: 0px&quot;&gt;%3CmxGraphModel%3E%3Croot%3E%3CmxCell%20id%3D%220%22%2F%3E%3CmxCell%20id%3D%221%22%20parent%3D%220%22%2F%3E%3CmxCell%20id%3D%222%22%20value%3D%22release%2F*%22%20style%3D%22strokeColor%3Dnone%3BfillColor%3D%23ec7211%3BfontSize%3D24%3BstrokeWidth%3D2%3Bhorizontal%3D0%3BfontFamily%3DHelvetica%3Bhtml%3D1%3BfontColor%3D%23FFFFFF%3BfontStyle%3D0%22%20vertex%3D%221%22%20parent%3D%221%22%3E%3CmxGeometry%20x%3D%22150%22%20y%3D%222360%22%20width%3D%2286%22%20height%3D%22400%22%20as%3D%22geometry%22%2F%3E%3C%2FmxCell%3E%3CmxCell%20id%3D%223%22%20value%3D%22%22%20style%3D%22group%22%20vertex%3D%221%22%20connectable%3D%220%22%20parent%3D%221%22%3E%3CmxGeometry%20x%3D%22237.98%22%20y%3D%222360%22%20width%3D%22450%22%20height%3D%22400%22%20as%3D%22geometry%22%2F%3E%3C%2FmxCell%3E%3CmxCell%20id%3D%224%22%20value%3D%22%22%20style%3D%22strokeColor%3D%23FFFFFF%3BfillColor%3D%23D5DBDB%3BfontSize%3D18%3BstrokeWidth%3D2%3BfontFamily%3DHelvetica%3Bhtml%3D1%3Bopacity%3D60%3B%22%20vertex%3D%221%22%20parent%3D%223%22%3E%3CmxGeometry%20width%3D%22450%22%20height%3D%22400%22%20as%3D%22geometry%22%2F%3E%3C%2FmxCell%3E%3CmxCell%20id%3D%225%22%20value%3D%22%26lt%3Bfont%20style%3D%26quot%3Bfont-size%3A%2012px%26quot%3B%26gt%3BSandbox%26lt%3B%2Ffont%26gt%3B%26lt%3Bspan%20style%3D%26quot%3Bfont-size%3A%2012px%26quot%3B%26gt%3B%26amp%3Bnbsp%3B%2F%20release%26lt%3B%2Fspan%26gt%3B%22%20style%3D%22text%3Bhtml%3D1%3BstrokeColor%3Dnone%3BfillColor%3Dnone%3Balign%3Dcenter%3BverticalAlign%3Dmiddle%3BwhiteSpace%3Dwrap%3Brounded%3D0%3BlabelBackgroundColor%3Dnone%3BfontFamily%3DHelvetica%3BfontSize%3D18%3BfontColor%3D%23000000%3B%22%20vertex%3D%221%22%20parent%3D%223%22%3E%3CmxGeometry%20x%3D%226.009999999999991%22%20y%3D%223.3057851239669422%22%20width%3D%22108%22%20height%3D%2233.057851239669425%22%20as%3D%22geometry%22%2F%3E%3C%2FmxCell%3E%3CmxCell%20id%3D%226%22%20value%3D%22%22%20style%3D%22group%22%20vertex%3D%221%22%20connectable%3D%220%22%20parent%3D%221%22%3E%3CmxGeometry%20x%3D%221137.98%22%20y%3D%222360%22%20width%3D%22450%22%20height%3D%22400%22%20as%3D%22geometry%22%2F%3E%3C%2FmxCell%3E%3CmxCell%20id%3D%227%22%20value%3D%22%22%20style%3D%22strokeColor%3D%23FFFFFF%3BfillColor%3D%23D5DBDB%3BfontSize%3D18%3BstrokeWidth%3D2%3BfontFamily%3DHelvetica%3Bhtml%3D1%3Bopacity%3D60%3B%22%20vertex%3D%221%22%20parent%3D%226%22%3E%3CmxGeometry%20width%3D%22450%22%20height%3D%22400%22%20as%3D%22geometry%22%2F%3E%3C%2FmxCell%3E%3CmxCell%20id%3D%228%22%20value%3D%22%26lt%3Bfont%20style%3D%26quot%3Bfont-size%3A%2012px%26quot%3B%26gt%3BTest%26lt%3B%2Ffont%26gt%3B%26lt%3Bspan%20style%3D%26quot%3Bfont-size%3A%2012px%26quot%3B%26gt%3B%26amp%3Bnbsp%3B%2F%26amp%3Bnbsp%3B%26lt%3B%2Fspan%26gt%3B%26lt%3Bspan%20style%3D%26quot%3Bfont-size%3A%2012px%26quot%3B%26gt%3Brelease%26lt%3B%2Fspan%26gt%3B%22%20style%3D%22text%3Bhtml%3D1%3BstrokeColor%3Dnone%3BfillColor%3Dnone%3Balign%3Dcenter%3BverticalAlign%3Dmiddle%3BwhiteSpace%3Dwrap%3Brounded%3D0%3BlabelBackgroundColor%3Dnone%3BfontFamily%3DHelvetica%3BfontSize%3D18%3BfontColor%3D%23000000%3B%22%20vertex%3D%221%22%20parent%3D%226%22%3E%3CmxGeometry%20x%3D%226.009999999999991%22%20y%3D%223.3057851239669422%22%20width%3D%22108%22%20height%3D%2233.057851239669425%22%20as%3D%22geometry%22%2F%3E%3C%2FmxCell%3E%3CmxCell%20id%3D%229%22%20value%3D%22%22%20style%3D%22group%22%20vertex%3D%221%22%20connectable%3D%220%22%20parent%3D%221%22%3E%3CmxGeometry%20x%3D%221587.98%22%20y%3D%222360%22%20width%3D%22450%22%20height%3D%22400%22%20as%3D%22geometry%22%2F%3E%3C%2FmxCell%3E%3CmxCell%20id%3D%2210%22%20value%3D%22%22%20style%3D%22strokeColor%3D%23FFFFFF%3BfillColor%3D%23D5DBDB%3BfontSize%3D18%3BstrokeWidth%3D2%3BfontFamily%3DHelvetica%3Bhtml%3D1%3Bopacity%3D60%3B%22%20vertex%3D%221%22%20parent%3D%229%22%3E%3CmxGeometry%20width%3D%22450%22%20height%3D%22400%22%20as%3D%22geometry%22%2F%3E%3C%2FmxCell%3E%3CmxCell%20id%3D%2211%22%20value%3D%22%26lt%3Bfont%20style%3D%26quot%3Bfont-size%3A%2012px%26quot%3B%26gt%3BStage%26lt%3B%2Ffont%26gt%3B%26lt%3Bspan%20style%3D%26quot%3Bfont-size%3A%2012px%26quot%3B%26gt%3B%26amp%3Bnbsp%3B%2F%26amp%3Bnbsp%3B%26lt%3B%2Fspan%26gt%3B%26lt%3Bspan%20style%3D%26quot%3Bfont-size%3A%2012px%26quot%3B%26gt%3Brelease%26lt%3B%2Fspan%26gt%3B%22%20style%3D%22text%3Bhtml%3D1%3BstrokeColor%3Dnone%3BfillColor%3Dnone%3Balign%3Dcenter%3BverticalAlign%3Dmiddle%3BwhiteSpace%3Dwrap%3Brounded%3D0%3BlabelBackgroundColor%3Dnone%3BfontFamily%3DHelvetica%3BfontSize%3D18%3BfontColor%3D%23000000%3B%22%20vertex%3D%221%22%20parent%3D%229%22%3E%3CmxGeometry%20x%3D%226.009999999999991%22%20y%3D%223.3057851239669422%22%20width%3D%22108%22%20height%3D%2233.057851239669425%22%20as%3D%22geometry%22%2F%3E%3C%2FmxCell%3E%3CmxCell%20id%3D%2212%22%20value%3D%22%22%20style%3D%22group%22%20vertex%3D%221%22%20connectable%3D%220%22%20parent%3D%221%22%3E%3CmxGeometry%20x%3D%222037.98%22%20y%3D%222360%22%20width%3D%22450%22%20height%3D%22400%22%20as%3D%22geometry%22%2F%3E%3C%2FmxCell%3E%3CmxCell%20id%3D%2213%22%20value%3D%22%22%20style%3D%22strokeColor%3D%23FFFFFF%3BfillColor%3D%23D5DBDB%3BfontSize%3D18%3BstrokeWidth%3D2%3BfontFamily%3DHelvetica%3Bhtml%3D1%3Bopacity%3D60%3B%22%20vertex%3D%221%22%20parent%3D%2212%22%3E%3CmxGeometry%20width%3D%22450%22%20height%3D%22400%22%20as%3D%22geometry%22%2F%3E%3C%2FmxCell%3E%3CmxCell%20id%3D%2214%22%20value%3D%22%26lt%3Bspan%20style%3D%26quot%3Bfont-size%3A%2012px%26quot%3B%26gt%3BProduction%20%2F%20release%26lt%3B%2Fspan%26gt%3B%22%20style%3D%22text%3Bhtml%3D1%3BstrokeColor%3Dnone%3BfillColor%3Dnone%3Balign%3Dcenter%3BverticalAlign%3Dmiddle%3BwhiteSpace%3Dwrap%3Brounded%3D0%3BlabelBackgroundColor%3Dnone%3BfontFamily%3DHelvetica%3BfontSize%3D18%3BfontColor%3D%23000000%3B%22%20vertex%3D%221%22%20parent%3D%2212%22%3E%3CmxGeometry%20x%3D%226.01%22%20y%3D%223.31%22%20width%3D%22113.99%22%20height%3D%2233.06%22%20as%3D%22geometry%22%2F%3E%3C%2FmxCell%3E%3CmxCell%20id%3D%2215%22%20value%3D%22%22%20style%3D%22group%22%20vertex%3D%221%22%20connectable%3D%220%22%20parent%3D%221%22%3E%3CmxGeometry%20x%3D%22690%22%20y%3D%222360%22%20width%3D%22450%22%20height%3D%22400%22%20as%3D%22geometry%22%2F%3E%3C%2FmxCell%3E%3CmxCell%20id%3D%2216%22%20value%3D%22%22%20style%3D%22strokeColor%3D%23FFFFFF%3BfillColor%3D%23D5DBDB%3BfontSize%3D18%3BstrokeWidth%3D2%3BfontFamily%3DHelvetica%3Bhtml%3D1%3Bopacity%3D60%3B%22%20vertex%3D%221%22%20parent%3D%2215%22%3E%3CmxGeometry%20width%3D%22450%22%20height%3D%22400%22%20as%3D%22geometry%22%2F%3E%3C%2FmxCell%3E%3CmxCell%20id%3D%2217%22%20value%3D%22%26lt%3Bfont%20style%3D%26quot%3Bfont-size%3A%2012px%26quot%3B%26gt%3BDevelop%26lt%3B%2Ffont%26gt%3B%26lt%3Bspan%20style%3D%26quot%3Bfont-size%3A%2012px%26quot%3B%26gt%3B%26amp%3Bnbsp%3B%2F%26amp%3Bnbsp%3B%26lt%3B%2Fspan%26gt%3B%26lt%3Bspan%20style%3D%26quot%3Bfont-size%3A%2012px%26quot%3B%26gt%3Brelease%26lt%3B%2Fspan%26gt%3B%22%20style%3D%22text%3Bhtml%3D1%3BstrokeColor%3Dnone%3BfillColor%3Dnone%3Balign%3Dcenter%3BverticalAlign%3Dmiddle%3BwhiteSpace%3Dwrap%3Brounded%3D0%3BlabelBackgroundColor%3Dnone%3BfontFamily%3DHelvetica%3BfontSize%3D18%3BfontColor%3D%23000000%3B%22%20vertex%3D%221%22%20parent%3D%2215%22%3E%3CmxGeometry%20x%3D%226.009999999999991%22%20y%3D%223.3057851239669422%22%20width%3D%22108%22%20height%3D%2233.057851239669425%22%20as%3D%22geometry%22%2F%3E%3C%2FmxCell%3E%3C%2Froot%3E%3C%2FmxGraphModel%3E&lt;/span&gt;" style="text;html=1;strokeColor=none;fillColor=none;align=center;verticalAlign=middle;whiteSpace=wrap;rounded=0;labelBackgroundColor=none;fontFamily=Helvetica;fontSize=18;fontColor=#000000;" vertex="1" parent="143"><mxGeometry x="6.023355555555546" y="3.3057851239668707" width="108.24" height="33.057851239669425" as="geometry"/></mxCell><mxCell id="a8QK_xVsvoP_7gLjCRSt-402" value="&lt;font style=&quot;font-size: 12px&quot;&gt;Sandbox&lt;/font&gt;&lt;span style=&quot;font-size: 12px&quot;&gt;&amp;nbsp;/ hotfix&lt;/span&gt;" style="text;html=1;strokeColor=none;fillColor=none;align=center;verticalAlign=middle;whiteSpace=wrap;rounded=0;labelBackgroundColor=none;fontFamily=Helvetica;fontSize=18;fontColor=#000000;" vertex="1" parent="143"><mxGeometry x="-445.00368261827157" y="3.3057851239668707" width="107.75412266666666" height="33.057851239669425" as="geometry"/></mxCell><mxCell id="a8QK_xVsvoP_7gLjCRSt-405" value="Merge&lt;br&gt;Request" style="shape=actor;whiteSpace=wrap;html=1;labelBackgroundColor=none;fontFamily=Helvetica;fontSize=18;fontColor=#d13212;strokeColor=none;strokeWidth=2;fillColor=#d13212;verticalAlign=middle;labelPosition=right;verticalLabelPosition=middle;align=left;" vertex="1" parent="143"><mxGeometry x="43.09555555555555" y="41" width="63.410599999999995" height="70" as="geometry"/></mxCell><mxCell id="yH-A3wYIznov1LGlbIlL-366" value="&lt;font style=&quot;font-size: 18px&quot;&gt;HF3&lt;/font&gt;&lt;span style=&quot;color: rgba(0, 0, 0, 0); font-family: monospace; font-size: 0px; text-align: start;&quot;&gt;%3CmxGraphModel%3E%3Croot%3E%3CmxCell%20id%3D%220%22%2F%3E%3CmxCell%20id%3D%221%22%20parent%3D%220%22%2F%3E%3CmxCell%20id%3D%222%22%20value%3D%22%26lt%3Bfont%20style%3D%26quot%3Bfont-size%3A%2018px%26quot%3B%26gt%3BHF1%26lt%3B%2Ffont%26gt%3B%22%20style%3D%22ellipse%3BwhiteSpace%3Dwrap%3Bhtml%3D1%3Baspect%3Dfixed%3BfontFamily%3DHelvetica%3BfontSize%3D18%3BfontColor%3D%23FFFFFF%3BstrokeColor%3Dnone%3BstrokeWidth%3D2%3BfillColor%3D%23FFCCCC%3B%22%20vertex%3D%221%22%20parent%3D%221%22%3E%3CmxGeometry%20x%3D%22413%22%20y%3D%221710.0000000000002%22%20width%3D%2248%22%20height%3D%2248%22%20as%3D%22geometry%22%2F%3E%3C%2FmxCell%3E%3C%2Froot%3E%3C%2FmxGraphModel%3E&lt;/span&gt;" style="ellipse;whiteSpace=wrap;html=1;aspect=fixed;fontFamily=Helvetica;fontSize=18;fontColor=#FFFFFF;strokeColor=none;strokeWidth=2;fillColor=#FFCCCC;" vertex="1" parent="143"><mxGeometry x="6.023355555555546" y="115.00000000000023" width="48" height="48" as="geometry"/></mxCell><mxCell id="168" value="" style="group" parent="1" vertex="1" connectable="0"><mxGeometry x="1587.98" y="1601" width="450" height="400" as="geometry"/></mxCell><mxCell id="169" value="" style="strokeColor=#FFFFFF;fillColor=#AAB7B8;fontSize=18;strokeWidth=2;fontFamily=Helvetica;html=1;opacity=90;labelBackgroundColor=none;" parent="168" vertex="1"><mxGeometry width="450" height="400" as="geometry"/></mxCell><mxCell id="170" value="&lt;font style=&quot;font-size: 12px&quot;&gt;Stage&lt;/font&gt;&lt;span style=&quot;font-size: 12px&quot;&gt;&amp;nbsp;/&amp;nbsp;&lt;/span&gt;&lt;span style=&quot;font-size: 12px&quot;&gt;hotfix&lt;/span&gt;" style="text;html=1;strokeColor=none;fillColor=none;align=center;verticalAlign=middle;whiteSpace=wrap;rounded=0;labelBackgroundColor=none;fontFamily=Helvetica;fontSize=18;fontColor=#000000;" parent="168" vertex="1"><mxGeometry x="6.009999999999991" y="3.3057851239669422" width="108" height="33.057851239669425" as="geometry"/></mxCell><mxCell id="191" value="" style="group;fontColor=#545b64;" parent="1" vertex="1" connectable="0"><mxGeometry x="241" y="1201" width="603.7" height="400" as="geometry"/></mxCell><mxCell id="192" value="" style="strokeColor=#FFFFFF;fillColor=#e6e9e9;fontSize=18;strokeWidth=2;fontFamily=Helvetica;html=1;opacity=90;" parent="191" vertex="1"><mxGeometry width="449" height="400" as="geometry"/></mxCell><mxCell id="193" value="&lt;font style=&quot;font-size: 12px&quot;&gt;Sandbox&lt;/font&gt;&lt;span style=&quot;font-size: 12px&quot;&gt;&amp;nbsp;/ bugfix&lt;/span&gt;" style="text;html=1;strokeColor=none;fillColor=none;align=center;verticalAlign=middle;whiteSpace=wrap;rounded=0;labelBackgroundColor=none;fontFamily=Helvetica;fontSize=18;fontColor=#000000;" parent="191" vertex="1"><mxGeometry x="6.029500833333333" width="96.4813325" height="30" as="geometry"/></mxCell><mxCell id="a8QK_xVsvoP_7gLjCRSt-365" value="Develop Code" style="shape=actor;whiteSpace=wrap;html=1;labelBackgroundColor=none;fontFamily=Helvetica;fontSize=18;fontColor=#545b64;strokeColor=none;strokeWidth=2;fillColor=#545b64;verticalAlign=top;labelPosition=center;verticalLabelPosition=bottom;align=center;" vertex="1" parent="191"><mxGeometry x="22" y="269" width="64.67" height="70" as="geometry"/></mxCell><mxCell id="a8QK_xVsvoP_7gLjCRSt-366" value="" style="edgeStyle=elbowEdgeStyle;elbow=horizontal;strokeWidth=3;strokeColor=#545b64;fontFamily=Helvetica;html=1;entryX=0.75;entryY=0.25;entryDx=0;entryDy=0;entryPerimeter=0;" edge="1" parent="191" target="a8QK_xVsvoP_7gLjCRSt-365"><mxGeometry x="-666.5522451990616" y="-364.25" width="91.27169702313125" height="100" as="geometry"><mxPoint x="168.5865489418597" y="286" as="sourcePoint"/><mxPoint x="-175.15267370556504" y="-518" as="targetPoint"/><Array as="points"><mxPoint x="127.09085988288996" y="279"/></Array></mxGeometry></mxCell><mxCell id="a8QK_xVsvoP_7gLjCRSt-368" value="Manual Deploy" style="shape=actor;whiteSpace=wrap;html=1;labelBackgroundColor=none;fontFamily=Helvetica;fontSize=18;fontColor=#545b64;strokeColor=none;strokeWidth=2;fillColor=#545b64;verticalAlign=top;labelPosition=center;verticalLabelPosition=bottom;align=center;" vertex="1" parent="191"><mxGeometry x="161.67000000000002" y="269" width="63.27" height="70" as="geometry"/></mxCell><mxCell id="a8QK_xVsvoP_7gLjCRSt-369" value="" style="edgeStyle=elbowEdgeStyle;elbow=horizontal;strokeWidth=3;strokeColor=#545b64;fontFamily=Helvetica;html=1;entryX=0;entryY=0.75;entryDx=0;entryDy=0;exitX=1;exitY=0.75;exitDx=0;exitDy=0;" edge="1" parent="191" source="a8QK_xVsvoP_7gLjCRSt-365" target="a8QK_xVsvoP_7gLjCRSt-368"><mxGeometry x="-535.1492298456567" y="-226.75" width="91.27169702313125" height="100" as="geometry"><mxPoint x="-160.539275208631" y="-617.0000000000005" as="sourcePoint"/><mxPoint x="-160.539275208631" y="-582.0000000000005" as="targetPoint"/><Array as="points"/></mxGeometry></mxCell><mxCell id="a8QK_xVsvoP_7gLjCRSt-370" value="bugfix/*" style="ellipse;whiteSpace=wrap;html=1;aspect=fixed;fontFamily=Helvetica;fontSize=20;fontColor=#FFFFFF;strokeColor=#545b64;strokeWidth=2;fillColor=#545b64;" vertex="1" parent="191"><mxGeometry x="86.67124999999999" y="59" width="75" height="75" as="geometry"/></mxCell><mxCell id="a8QK_xVsvoP_7gLjCRSt-371" value="" style="edgeStyle=elbowEdgeStyle;elbow=horizontal;strokeWidth=3;strokeColor=#545b64;fontFamily=Helvetica;html=1;entryX=0.5;entryY=0;entryDx=0;entryDy=0;exitX=0;exitY=0.5;exitDx=0;exitDy=0;" edge="1" parent="191" source="a8QK_xVsvoP_7gLjCRSt-370" target="a8QK_xVsvoP_7gLjCRSt-365"><mxGeometry x="-565.8076281120591" y="28" width="91.27169702313125" height="100" as="geometry"><mxPoint x="-50.665606528655076" y="-735" as="sourcePoint"/><mxPoint x="-94.83776753192853" y="-729.5000000000005" as="targetPoint"/><Array as="points"><mxPoint x="54.94" y="179"/><mxPoint x="81.44560191802299" y="839"/><mxPoint x="63.94133708331418" y="949"/></Array></mxGeometry></mxCell><mxCell id="o12bb2My9N7uG-jMwVOs-365" value="&lt;font style=&quot;font-size: 18px;&quot;&gt;BF2&lt;/font&gt;" style="ellipse;whiteSpace=wrap;html=1;aspect=fixed;fontFamily=Helvetica;fontSize=20;fontColor=#FFFFFF;strokeColor=none;strokeWidth=2;fillColor=#FFB570;" vertex="1" parent="191"><mxGeometry x="75.00484457110508" y="224" width="48" height="48" as="geometry"/></mxCell><mxCell id="171" value="" style="group" parent="1" vertex="1" connectable="0"><mxGeometry x="2039.32" y="1199" width="453.16" height="400" as="geometry"/></mxCell><mxCell id="172" value="" style="strokeColor=#FFFFFF;fillColor=#e6e9e9;fontSize=18;strokeWidth=2;fontFamily=Helvetica;html=1;opacity=90;" parent="171" vertex="1"><mxGeometry width="453.16" height="400" as="geometry"/></mxCell><mxCell id="173" value="&lt;span style=&quot;font-size: 12px&quot;&gt;Production /&amp;nbsp;&lt;/span&gt;&lt;span style=&quot;font-size: 12px&quot;&gt;bugfix&lt;/span&gt;" style="text;html=1;strokeColor=none;fillColor=none;align=center;verticalAlign=middle;whiteSpace=wrap;rounded=0;labelBackgroundColor=none;fontFamily=Helvetica;fontSize=18;fontColor=#000000;" parent="171" vertex="1"><mxGeometry x="3.96" width="116.04" height="30" as="geometry"/></mxCell><mxCell id="175" value="" style="group" parent="1" vertex="1" connectable="0"><mxGeometry x="1589" y="1199" width="451" height="400" as="geometry"/></mxCell><mxCell id="176" value="" style="strokeColor=#FFFFFF;fillColor=#e6e9e9;fontSize=18;strokeWidth=2;fontFamily=Helvetica;html=1;opacity=90;" parent="175" vertex="1"><mxGeometry width="450.99999999999994" height="400" as="geometry"/></mxCell><mxCell id="177" value="&lt;span style=&quot;font-size: 12px&quot;&gt;Stage /&amp;nbsp;&lt;/span&gt;&lt;span style=&quot;font-size: 12px&quot;&gt;bugfix&lt;/span&gt;" style="text;html=1;strokeColor=none;fillColor=none;align=center;verticalAlign=middle;whiteSpace=wrap;rounded=0;labelBackgroundColor=none;fontFamily=Helvetica;fontSize=18;fontColor=#000000;" parent="175" vertex="1"><mxGeometry x="3.9411245476211487" width="115.48689204695911" height="30" as="geometry"/></mxCell><mxCell id="194" value="GitHub Flow Branching Strategy with Multi-Account Deployment" style="strokeColor=#BAC8D3;fillColor=#252F3E;fontSize=24;strokeWidth=2;fontFamily=Helvetica;html=1;fontColor=#FFFFFF;fontStyle=0;spacingBottom=8;spacingRight=0;spacingLeft=83;" parent="1" vertex="1"><mxGeometry x="152.66" y="720" width="2337.34" height="50" as="geometry"/></mxCell><mxCell id="196" value="v 1.0" style="strokeColor=#BAC8D3;fillColor=#FF9900;fontSize=19;strokeWidth=2;fontFamily=Helvetica;html=1;labelBackgroundColor=none;fontColor=#FFFFFF;" parent="1" vertex="1"><mxGeometry x="151.33" y="720" width="90" height="80" as="geometry"/></mxCell><mxCell id="197" value="" style="group" parent="1" vertex="1" connectable="0"><mxGeometry x="240" y="760" width="1940" height="800" as="geometry"/></mxCell><mxCell id="198" value="Sandbox Account" style="strokeColor=#BAC8D3;fillColor=#5d7f99;fontSize=19;strokeWidth=2;fontFamily=Helvetica;html=1;labelBackgroundColor=none;fontColor=#FFFFFF;" parent="197" vertex="1"><mxGeometry width="450" height="40" as="geometry"/></mxCell><mxCell id="199" value="Develop Account" style="strokeColor=#BAC8D3;fillColor=#5d7f99;fontSize=19;strokeWidth=2;fontFamily=Helvetica;html=1;labelBackgroundColor=none;fontColor=#FFFFFF;" parent="197" vertex="1"><mxGeometry x="450" width="450" height="40" as="geometry"/></mxCell><mxCell id="200" value="" style="group" parent="197" vertex="1" connectable="0"><mxGeometry x="1401.42" y="-40" width="451" height="440" as="geometry"/></mxCell><mxCell id="204" value="Stage Account" style="strokeColor=#BAC8D3;fillColor=#5d7f99;fontSize=19;strokeWidth=2;fontFamily=Helvetica;html=1;labelBackgroundColor=none;fontColor=#FFFFFF;" parent="200" vertex="1"><mxGeometry x="-51.42000000000007" y="40" width="450" height="40" as="geometry"/></mxCell><mxCell id="205" value="" style="group" parent="197" vertex="1" connectable="0"><mxGeometry x="1346" y="41" width="453.16" height="400" as="geometry"/></mxCell><mxCell id="206" value="" style="strokeColor=#FFFFFF;fillColor=#AAB7B8;fontSize=18;strokeWidth=2;fontFamily=Helvetica;html=1;opacity=90;" parent="205" vertex="1"><mxGeometry width="453.16" height="400" as="geometry"/></mxCell><mxCell id="207" value="&lt;span style=&quot;font-size: 12px&quot;&gt;Stage / feature&lt;/span&gt;" style="text;html=1;strokeColor=none;fillColor=none;align=center;verticalAlign=middle;whiteSpace=wrap;rounded=0;labelBackgroundColor=none;fontFamily=Helvetica;fontSize=18;fontColor=#000000;" parent="205" vertex="1"><mxGeometry x="3.96" width="96.04" height="30" as="geometry"/></mxCell><mxCell id="o12bb2My9N7uG-jMwVOs-366" value="&lt;font style=&quot;font-size: 18px;&quot;&gt;BF1&lt;/font&gt;" style="ellipse;whiteSpace=wrap;html=1;aspect=fixed;fontFamily=Helvetica;fontSize=20;fontColor=#FFFFFF;strokeColor=none;strokeWidth=2;fillColor=#FFB570;" vertex="1" parent="197"><mxGeometry x="161.00484457110508" y="552" width="48" height="48" as="geometry"/></mxCell><mxCell id="o12bb2My9N7uG-jMwVOs-364" value="&lt;font style=&quot;font-size: 18px;&quot;&gt;BF3&lt;/font&gt;" style="ellipse;whiteSpace=wrap;html=1;aspect=fixed;fontFamily=Helvetica;fontSize=20;fontColor=#FFFFFF;strokeColor=none;strokeWidth=2;fillColor=#FFB570;" vertex="1" parent="197"><mxGeometry x="537.0048445711051" y="550" width="48" height="48" as="geometry"/></mxCell><mxCell id="208" value="feature/*" style="strokeColor=none;fillColor=#0073BB;fontSize=24;strokeWidth=2;horizontal=0;fontFamily=Helvetica;html=1;fontColor=#FFFFFF;fontStyle=0" parent="1" vertex="1"><mxGeometry x="150" y="801" width="90" height="400" as="geometry"/></mxCell><mxCell id="210" value="" style="group" parent="1" vertex="1" connectable="0"><mxGeometry x="150" y="540" width="1510" height="170" as="geometry"/></mxCell><mxCell id="211" value="" style="rounded=1;whiteSpace=wrap;html=1;labelBackgroundColor=none;fontFamily=Helvetica;fontSize=18;fontColor=#000000;strokeColor=#BAC8D3;strokeWidth=2;fillColor=#FFFFFF;" parent="210" vertex="1"><mxGeometry width="1510" height="170" as="geometry"/></mxCell><mxCell id="212" value="branch" style="ellipse;whiteSpace=wrap;html=1;aspect=fixed;fontFamily=Helvetica;fontSize=20;fontColor=#000000;strokeColor=#0073BB;strokeWidth=2;fillColor=#0073BB;verticalAlign=top;labelPosition=center;verticalLabelPosition=bottom;align=center;" parent="210" vertex="1"><mxGeometry x="105.96491228070174" y="42.5" width="71.05263157894737" height="71.05263157894737" as="geometry"/></mxCell><mxCell id="213" value="CI/CD&amp;nbsp;Process" style="rounded=1;whiteSpace=wrap;html=1;fontFamily=Helvetica;fontSize=20;fontColor=#000000;strokeColor=#BAC8D3;strokeWidth=2;fillColor=#0073BB;labelPosition=center;verticalLabelPosition=bottom;align=center;verticalAlign=top;" parent="210" vertex="1"><mxGeometry x="218.5526315789474" y="42.5" width="134.8171710526316" height="85" as="geometry"/></mxCell><mxCell id="214" value="Legend" style="text;html=1;strokeColor=none;fillColor=none;align=center;verticalAlign=middle;whiteSpace=wrap;rounded=0;labelBackgroundColor=none;fontFamily=Helvetica;fontSize=18;fontColor=#000000;" parent="210" vertex="1"><mxGeometry x="-30.275689223057643" width="211.92982456140348" height="31.875" as="geometry"/></mxCell><mxCell id="215" value="&lt;font color=&quot;#000000&quot;&gt;User&lt;br&gt;Action&lt;br&gt;&lt;/font&gt;" style="shape=actor;whiteSpace=wrap;html=1;labelBackgroundColor=none;fontFamily=Helvetica;fontSize=18;fontColor=#FFFFFF;strokeColor=none;strokeWidth=2;fillColor=#0073BB;verticalAlign=top;labelPosition=center;verticalLabelPosition=bottom;align=center;" parent="210" vertex="1"><mxGeometry x="387.4342105263158" y="42.5" width="59.60526315789473" height="70" as="geometry"/></mxCell><mxCell id="216" value="" style="group" parent="210" vertex="1" connectable="0"><mxGeometry x="491.7410099846389" y="34.38" width="123.06042202279887" height="116.875" as="geometry"/></mxCell><mxCell id="217" value="&lt;font style=&quot;font-size: 36px&quot;&gt;#&lt;/font&gt;" style="ellipse;whiteSpace=wrap;html=1;aspect=fixed;fontFamily=Helvetica;fontSize=20;fontColor=#FFFFFF;strokeColor=#FFD966;strokeWidth=2;fillColor=#FFD966;" parent="216" vertex="1"><mxGeometry width="71.05263157894737" height="71.05263157894737" as="geometry"/></mxCell><mxCell id="218" value="Path" style="text;html=1;strokeColor=none;fillColor=none;align=center;verticalAlign=middle;whiteSpace=wrap;rounded=0;labelBackgroundColor=none;fontFamily=Helvetica;fontSize=18;fontColor=#000000;" parent="216" vertex="1"><mxGeometry x="-26.81797356293961" y="85" width="123.05602716468589" height="31.875" as="geometry"/></mxCell><mxCell id="219" value="" style="group" parent="210" vertex="1" connectable="0"><mxGeometry x="643.1194560999272" y="34.38" width="123.06042202279887" height="116.88" as="geometry"/></mxCell><mxCell id="220" value="&lt;font style=&quot;font-size: 36px&quot;&gt;HF#&lt;/font&gt;" style="ellipse;whiteSpace=wrap;html=1;aspect=fixed;fontFamily=Helvetica;fontSize=20;fontColor=#FFFFFF;strokeColor=none;strokeWidth=2;fillColor=#FFCCCC;" parent="219" vertex="1"><mxGeometry width="71.05263157894737" height="71.05263157894737" as="geometry"/></mxCell><mxCell id="221" value="Hotfix Path" style="text;html=1;strokeColor=none;fillColor=none;align=center;verticalAlign=middle;whiteSpace=wrap;rounded=0;labelBackgroundColor=none;fontFamily=Helvetica;fontSize=18;fontColor=#000000;" parent="219" vertex="1"><mxGeometry x="-17.461077694235637" y="85.005" width="105.96491228070174" height="31.875" as="geometry"/></mxCell><mxCell id="222" value="" style="group" parent="210" vertex="1" connectable="0"><mxGeometry x="792.5148445711051" y="34.38" width="123.06042202279887" height="127.5" as="geometry"/></mxCell><mxCell id="223" value="&lt;font style=&quot;font-size: 36px&quot;&gt;BF#&lt;/font&gt;" style="ellipse;whiteSpace=wrap;html=1;aspect=fixed;fontFamily=Helvetica;fontSize=20;fontColor=#FFFFFF;strokeColor=none;strokeWidth=2;fillColor=#FFB570;" parent="222" vertex="1"><mxGeometry width="71.05263157894737" height="71.05263157894737" as="geometry"/></mxCell><mxCell id="224" value="hotfix branch is always created from main" style="text;html=1;strokeColor=none;fillColor=none;align=left;verticalAlign=middle;whiteSpace=wrap;rounded=0;labelBackgroundColor=none;fontFamily=Helvetica;fontSize=18;fontColor=#000000;" parent="210" vertex="1"><mxGeometry x="917.9965789473684" y="105" width="336.1339473684211" height="30" as="geometry"/></mxCell><mxCell id="225" value="bugfix branch is always created from main" style="text;html=1;strokeColor=none;fillColor=none;align=left;verticalAlign=middle;whiteSpace=wrap;rounded=0;labelBackgroundColor=none;fontFamily=Helvetica;fontSize=18;fontColor=#000000;" parent="210" vertex="1"><mxGeometry x="915.5765789473685" y="62.5" width="362.59868421052636" height="30" as="geometry"/></mxCell><mxCell id="226" value="feature branch is always created from main" style="text;html=1;strokeColor=none;fillColor=none;align=left;verticalAlign=middle;whiteSpace=wrap;rounded=0;labelBackgroundColor=none;fontFamily=Helvetica;fontSize=18;fontColor=#000000;" parent="210" vertex="1"><mxGeometry x="915.5765789473685" y="20" width="372.5328947368421" height="30" as="geometry"/></mxCell><mxCell id="227" value="Bugfix Path" style="text;html=1;strokeColor=none;fillColor=none;align=center;verticalAlign=middle;whiteSpace=wrap;rounded=0;labelBackgroundColor=none;fontFamily=Helvetica;fontSize=18;fontColor=#000000;" parent="210" vertex="1"><mxGeometry x="779.9967399345136" y="119.38499999999999" width="105.96491228070174" height="31.875" as="geometry"/></mxCell><mxCell id="228" value="" style="group" parent="1" vertex="1" connectable="0"><mxGeometry x="240" y="801" width="450" height="400" as="geometry"/></mxCell><mxCell id="229" value="" style="strokeColor=#FFFFFF;fillColor=#AAB7B8;fontSize=18;strokeWidth=2;fontFamily=Helvetica;html=1;opacity=90;" parent="228" vertex="1"><mxGeometry width="450" height="400" as="geometry"/></mxCell><mxCell id="230" value="&lt;font style=&quot;font-size: 12px&quot;&gt;Sandbox&lt;/font&gt;&lt;span style=&quot;font-size: 12px&quot;&gt;&amp;nbsp;/ feature&lt;/span&gt;" style="text;html=1;strokeColor=none;fillColor=none;align=center;verticalAlign=middle;whiteSpace=wrap;rounded=0;labelBackgroundColor=none;fontFamily=Helvetica;fontSize=18;fontColor=#000000;" parent="228" vertex="1"><mxGeometry x="6.065625" width="97.059375" height="30" as="geometry"/></mxCell><mxCell id="231" value="Develop Code" style="shape=actor;whiteSpace=wrap;html=1;labelBackgroundColor=none;fontFamily=Helvetica;fontSize=18;fontColor=#0073BB;strokeColor=none;strokeWidth=2;fillColor=#0073BB;verticalAlign=top;labelPosition=center;verticalLabelPosition=bottom;align=center;" parent="228" vertex="1"><mxGeometry x="47.06" y="270" width="64.67" height="70" as="geometry"/></mxCell><mxCell id="232" value="" style="edgeStyle=elbowEdgeStyle;elbow=horizontal;strokeWidth=3;strokeColor=#0073BB;fontFamily=Helvetica;html=1;entryX=0.75;entryY=0.25;entryDx=0;entryDy=0;entryPerimeter=0;" parent="228" target="231" edge="1"><mxGeometry x="-401.4922451990617" y="437.75" width="91.27169702313125" height="100" as="geometry"><mxPoint x="193.64654894185995" y="287" as="sourcePoint"/><mxPoint x="89.90732629443497" y="284" as="targetPoint"/><Array as="points"><mxPoint x="152.15085988288996" y="280"/></Array></mxGeometry></mxCell><mxCell id="233" value="&lt;font style=&quot;font-size: 36px&quot;&gt;2&lt;/font&gt;" style="ellipse;whiteSpace=wrap;html=1;aspect=fixed;fontFamily=Helvetica;fontSize=20;fontColor=#FFFFFF;strokeColor=#FFD966;strokeWidth=2;fillColor=#FFD966;" parent="228" vertex="1"><mxGeometry x="117.57" y="210" width="45.33" height="45.33" as="geometry"/></mxCell><mxCell id="234" value="Manual Deploy" style="shape=actor;whiteSpace=wrap;html=1;labelBackgroundColor=none;fontFamily=Helvetica;fontSize=18;fontColor=#0073BB;strokeColor=none;strokeWidth=2;fillColor=#0073BB;verticalAlign=top;labelPosition=center;verticalLabelPosition=bottom;align=center;" parent="228" vertex="1"><mxGeometry x="186.73" y="270" width="63.27" height="70" as="geometry"/></mxCell><mxCell id="235" value="" style="edgeStyle=elbowEdgeStyle;elbow=horizontal;strokeWidth=3;strokeColor=#0073BB;fontFamily=Helvetica;html=1;entryX=0;entryY=0.75;entryDx=0;entryDy=0;exitX=1;exitY=0.75;exitDx=0;exitDy=0;" parent="228" source="231" target="234" edge="1"><mxGeometry x="-270.08922984565675" y="575.25" width="91.27169702313125" height="100" as="geometry"><mxPoint x="104.52072479136898" y="184.99999999999955" as="sourcePoint"/><mxPoint x="104.52072479136898" y="219.99999999999955" as="targetPoint"/><Array as="points"/></mxGeometry></mxCell><mxCell id="236" value="feature/*" style="ellipse;whiteSpace=wrap;html=1;aspect=fixed;fontFamily=Helvetica;fontSize=20;fontColor=#FFFFFF;strokeColor=#0073BB;strokeWidth=2;fillColor=#0073BB;" parent="228" vertex="1"><mxGeometry x="111.73125" y="60" width="75" height="75" as="geometry"/></mxCell><mxCell id="237" value="" style="edgeStyle=elbowEdgeStyle;elbow=horizontal;strokeWidth=3;strokeColor=#0073BB;fontFamily=Helvetica;html=1;entryX=0.5;entryY=0;entryDx=0;entryDy=0;exitX=0;exitY=0.5;exitDx=0;exitDy=0;" parent="228" source="236" target="231" edge="1"><mxGeometry x="-300.7476281120591" y="830" width="91.27169702313125" height="100" as="geometry"><mxPoint x="214.39439347134493" y="67" as="sourcePoint"/><mxPoint x="170.22223246807147" y="72.49999999999955" as="targetPoint"/><Array as="points"><mxPoint x="80" y="180"/><mxPoint x="106.50560191802296" y="840"/><mxPoint x="89.00133708331417" y="950"/></Array></mxGeometry></mxCell><mxCell id="238" value="&lt;font style=&quot;font-size: 36px&quot;&gt;1&lt;/font&gt;" style="ellipse;whiteSpace=wrap;html=1;aspect=fixed;fontFamily=Helvetica;fontSize=20;fontColor=#FFFFFF;strokeColor=#FFD966;strokeWidth=2;fillColor=#FFD966;" parent="228" vertex="1"><mxGeometry x="191" y="112" width="45.33" height="45.33" as="geometry"/></mxCell><mxCell id="252" value="" style="group" parent="1" vertex="1" connectable="0"><mxGeometry x="1190.42" y="720" width="451" height="440" as="geometry"/></mxCell><mxCell id="256" value="Test Account" style="strokeColor=#BAC8D3;fillColor=#5d7f99;fontSize=19;strokeWidth=2;fontFamily=Helvetica;html=1;labelBackgroundColor=none;fontColor=#FFFFFF;" parent="252" vertex="1"><mxGeometry x="-50.42000000000007" y="40" width="450" height="40" as="geometry"/></mxCell><mxCell id="257" value="" style="group" parent="1" vertex="1" connectable="0"><mxGeometry x="690" y="801" width="450" height="400" as="geometry"/></mxCell><mxCell id="258" value="" style="strokeColor=#FFFFFF;fillColor=#AAB7B8;fontSize=18;strokeWidth=2;fontFamily=Helvetica;html=1;opacity=90;" parent="257" vertex="1"><mxGeometry width="450" height="400" as="geometry"/></mxCell><mxCell id="259" value="&lt;font style=&quot;font-size: 12px&quot;&gt;Develop&lt;/font&gt;&lt;span style=&quot;font-size: 12px&quot;&gt;&amp;nbsp;/ feature&lt;/span&gt;" style="text;html=1;strokeColor=none;fillColor=none;align=center;verticalAlign=middle;whiteSpace=wrap;rounded=0;labelBackgroundColor=none;fontFamily=Helvetica;fontSize=18;fontColor=#000000;" parent="257" vertex="1"><mxGeometry x="3.93238591226057" width="95.37028863977403" height="30" as="geometry"/></mxCell><mxCell id="260" value="&lt;font style=&quot;font-size: 36px&quot;&gt;3&lt;/font&gt;" style="ellipse;whiteSpace=wrap;html=1;aspect=fixed;fontFamily=Helvetica;fontSize=20;fontColor=#FFFFFF;strokeColor=#FFD966;strokeWidth=2;fillColor=#FFD966;" parent="257" vertex="1"><mxGeometry x="168" y="112" width="48.6" height="48.6" as="geometry"/></mxCell><mxCell id="261" value="Merge&lt;br&gt;Request" style="shape=actor;whiteSpace=wrap;html=1;labelBackgroundColor=none;fontFamily=Helvetica;fontSize=18;fontColor=#0073BB;strokeColor=none;strokeWidth=2;fillColor=#0073BB;verticalAlign=middle;labelPosition=right;verticalLabelPosition=middle;align=left;" parent="257" vertex="1"><mxGeometry x="267.99999999999994" y="45.99999999999999" width="63.27" height="70" as="geometry"/></mxCell><mxCell id="a8QK_xVsvoP_7gLjCRSt-373" value="&lt;font style=&quot;font-size: 36px&quot;&gt;4&lt;/font&gt;" style="ellipse;whiteSpace=wrap;html=1;aspect=fixed;fontFamily=Helvetica;fontSize=20;fontColor=#FFFFFF;strokeColor=#FFD966;strokeWidth=2;fillColor=#FFD966;" vertex="1" parent="257"><mxGeometry x="312" y="267" width="48.6" height="48.6" as="geometry"/></mxCell><mxCell id="262" value="" style="group" parent="1" vertex="1" connectable="0"><mxGeometry x="1169" y="801" width="453.16" height="400" as="geometry"/></mxCell><mxCell id="263" value="" style="strokeColor=#FFFFFF;fillColor=#AAB7B8;fontSize=18;strokeWidth=2;fontFamily=Helvetica;html=1;opacity=90;" parent="262" vertex="1"><mxGeometry x="-29" width="449" height="400" as="geometry"/></mxCell><mxCell id="264" value="&lt;span style=&quot;font-size: 12px&quot;&gt;Test / feature&lt;/span&gt;" style="text;html=1;strokeColor=none;fillColor=none;align=center;verticalAlign=middle;whiteSpace=wrap;rounded=0;labelBackgroundColor=none;fontFamily=Helvetica;fontSize=18;fontColor=#000000;" parent="262" vertex="1"><mxGeometry x="3.96" width="96.04" height="30" as="geometry"/></mxCell><mxCell id="265" value="" style="group" parent="1" vertex="1" connectable="0"><mxGeometry x="2040" y="802" width="453.16" height="398" as="geometry"/></mxCell><mxCell id="266" value="" style="strokeColor=#FFFFFF;fillColor=#AAB7B8;fontSize=18;strokeWidth=2;fontFamily=Helvetica;html=1;opacity=90;" parent="265" vertex="1"><mxGeometry width="453.16" height="398" as="geometry"/></mxCell><mxCell id="267" value="&lt;span style=&quot;font-size: 12px&quot;&gt;Production / feature&lt;/span&gt;" style="text;html=1;strokeColor=none;fillColor=none;align=center;verticalAlign=middle;whiteSpace=wrap;rounded=0;labelBackgroundColor=none;fontFamily=Helvetica;fontSize=18;fontColor=#000000;" parent="265" vertex="1"><mxGeometry x="3.96" width="116.04" height="29.85" as="geometry"/></mxCell><mxCell id="268" value="" style="edgeStyle=elbowEdgeStyle;elbow=horizontal;strokeWidth=3;strokeColor=#0073BB;fontFamily=Helvetica;html=1;exitX=1;exitY=0.5;exitDx=0;exitDy=0;entryX=0;entryY=0.75;entryDx=0;entryDy=0;" parent="1" source="236" target="261" edge="1"><mxGeometry x="376.44897959183675" y="1460.75" width="131.97278911564624" height="100" as="geometry"><mxPoint x="1553.5100000000002" y="1730.75" as="sourcePoint"/><mxPoint x="742.7893017918618" y="898.5" as="targetPoint"/><Array as="points"><mxPoint x="590" y="861"/></Array></mxGeometry></mxCell><mxCell id="283" value="bugfix/*" style="strokeColor=none;fillColor=#545b64;fontSize=24;strokeWidth=2;horizontal=0;fontFamily=Helvetica;html=1;fontColor=#FFFFFF;fontStyle=0" parent="1" vertex="1"><mxGeometry x="150" y="1199" width="90" height="400" as="geometry"/></mxCell><mxCell id="288" value="" style="group" parent="1" vertex="1" connectable="0"><mxGeometry x="1137.98" y="2003" width="1684.1400000000003" height="900" as="geometry"/></mxCell><mxCell id="296" value="" style="group" parent="288" vertex="1" connectable="0"><mxGeometry x="-337.98" y="10" width="2022.1200000000003" height="890" as="geometry"/></mxCell><mxCell id="284" value="main" style="strokeColor=none;fillColor=#ec7211;fontSize=24;strokeWidth=2;horizontal=0;fontFamily=Helvetica;html=1;fontColor=#FFFFFF;fontStyle=0" parent="296" vertex="1"><mxGeometry x="-650" y="-9" width="90" height="400" as="geometry"/></mxCell><mxCell id="285" value="" style="group" parent="296" vertex="1" connectable="0"><mxGeometry x="-560" y="-9" width="447.98" height="400" as="geometry"/></mxCell><mxCell id="286" value="" style="strokeColor=#FFFFFF;fillColor=#D5DBDB;fontSize=18;strokeWidth=2;fontFamily=Helvetica;html=1;opacity=60;" parent="285" vertex="1"><mxGeometry width="447.98" height="400" as="geometry"/></mxCell><mxCell id="287" value="&lt;font style=&quot;font-size: 12px&quot;&gt;Sandbox&lt;/font&gt;&lt;span style=&quot;font-size: 12px&quot;&gt;&amp;nbsp;/ main&lt;/span&gt;" style="text;html=1;strokeColor=none;fillColor=none;align=center;verticalAlign=middle;whiteSpace=wrap;rounded=0;labelBackgroundColor=none;fontFamily=Helvetica;fontSize=18;fontColor=#000000;" parent="285" vertex="1"><mxGeometry x="5.983021777777769" y="3.3057851239669422" width="107.51520000000001" height="33.057851239669425" as="geometry"/></mxCell><mxCell id="289" value="" style="strokeColor=#FFFFFF;fillColor=#D5DBDB;fontSize=18;strokeWidth=2;fontFamily=Helvetica;html=1;opacity=60;" parent="296" vertex="1"><mxGeometry x="337.98" y="-9" width="450" height="400" as="geometry"/></mxCell><mxCell id="290" value="&lt;font style=&quot;font-size: 12px&quot;&gt;Test&lt;/font&gt;&lt;span style=&quot;font-size: 12px&quot;&gt;&amp;nbsp;/&amp;nbsp;&lt;/span&gt;&lt;span style=&quot;font-size: 12px&quot;&gt;main&lt;/span&gt;" style="text;html=1;strokeColor=none;fillColor=none;align=center;verticalAlign=middle;whiteSpace=wrap;rounded=0;labelBackgroundColor=none;fontFamily=Helvetica;fontSize=18;fontColor=#000000;" parent="296" vertex="1"><mxGeometry x="343.99" y="-5.694214876033072" width="108" height="33.057851239669425" as="geometry"/></mxCell><mxCell id="291" value="&lt;font style=&quot;font-size: 36px&quot;&gt;7&lt;/font&gt;" style="ellipse;whiteSpace=wrap;html=1;aspect=fixed;fontFamily=Helvetica;fontSize=20;fontColor=#FFFFFF;strokeColor=#FFD966;strokeWidth=2;fillColor=#FFD966;" parent="296" vertex="1"><mxGeometry x="441" y="113" width="48" height="48" as="geometry"/></mxCell><mxCell id="292" value="Deployment" style="rounded=1;fillColor=#ec7211;strokeColor=none;strokeWidth=2;fontFamily=Helvetica;html=1;gradientColor=none;fontSize=20;fontColor=#FFFFFF" parent="296" vertex="1"><mxGeometry x="490" y="51" width="170.83" height="46.36" as="geometry"/></mxCell><mxCell id="293" value="Deploy" style="rounded=1;fillColor=#ec7211;strokeColor=none;strokeWidth=2;fontFamily=Helvetica;html=1;gradientColor=none;fontSize=20;fontColor=#FFFFFF" parent="296" vertex="1"><mxGeometry x="492.40999999999985" y="316.36" width="168.5" height="50" as="geometry"/></mxCell><mxCell id="294" value="" style="edgeStyle=elbowEdgeStyle;elbow=horizontal;strokeWidth=3;strokeColor=#ec7211;fontFamily=Helvetica;html=1;exitX=0.5;exitY=1;exitDx=0;exitDy=0;entryX=0.5;entryY=0;entryDx=0;entryDy=0;" parent="296" source="292" target="307" edge="1"><mxGeometry x="865.5189795918366" y="1280.8600000000001" width="131.97278911564624" height="100" as="geometry"><mxPoint x="1439.3400000000001" y="1783.5" as="sourcePoint"/><mxPoint x="577" y="121" as="targetPoint"/><Array as="points"/></mxGeometry></mxCell><mxCell id="295" value="" style="edgeStyle=elbowEdgeStyle;elbow=horizontal;strokeWidth=3;strokeColor=#ec7211;fontFamily=Helvetica;html=1;exitX=0.5;exitY=1;exitDx=0;exitDy=0;entryX=0.5;entryY=0;entryDx=0;entryDy=0;" parent="296" source="307" target="293" edge="1"><mxGeometry x="875.5189795918366" y="1290.8600000000001" width="131.97278911564624" height="100" as="geometry"><mxPoint x="576.6599999999999" y="197.36000000000013" as="sourcePoint"/><mxPoint x="1069.33" y="1691" as="targetPoint"/><Array as="points"/></mxGeometry></mxCell><mxCell id="297" value="" style="strokeColor=#FFFFFF;fillColor=#D5DBDB;fontSize=18;strokeWidth=2;fontFamily=Helvetica;html=1;opacity=60;" parent="296" vertex="1"><mxGeometry x="-110" y="-9" width="450" height="400" as="geometry"/></mxCell><mxCell id="299" value="main" style="ellipse;whiteSpace=wrap;html=1;aspect=fixed;fontFamily=Helvetica;fontSize=20;fontColor=#FFFFFF;strokeColor=none;strokeWidth=2;fillColor=#ec7211;" parent="296" vertex="1"><mxGeometry x="143.58000000000004" y="23" width="90" height="90" as="geometry"/></mxCell><mxCell id="300" value="Build" style="rounded=1;fillColor=#ec7211;strokeColor=none;strokeWidth=2;fontFamily=Helvetica;html=1;gradientColor=none;fontSize=20;fontColor=#FFFFFF" parent="296" vertex="1"><mxGeometry x="101.99999999999997" y="149" width="170.83" height="50" as="geometry"/></mxCell><mxCell id="301" value="Publish Artifacts" style="rounded=1;fillColor=#ec7211;strokeColor=none;strokeWidth=2;fontFamily=Helvetica;html=1;gradientColor=none;fontSize=20;fontColor=#FFFFFF" parent="296" vertex="1"><mxGeometry x="101.99999999999982" y="235" width="170.83" height="50" as="geometry"/></mxCell><mxCell id="303" value="" style="edgeStyle=elbowEdgeStyle;elbow=horizontal;strokeWidth=3;strokeColor=#ec7211;fontFamily=Helvetica;html=1;exitX=0.5;exitY=1;exitDx=0;exitDy=0;entryX=0.5;entryY=0;entryDx=0;entryDy=0;" parent="296" source="299" target="300" edge="1"><mxGeometry x="364.4189795918367" y="1158.8600000000001" width="131.97278911564624" height="100" as="geometry"><mxPoint x="729.9300000000001" y="1244" as="sourcePoint"/><mxPoint x="720.0549999999996" y="1454" as="targetPoint"/><Array as="points"/></mxGeometry></mxCell><mxCell id="304" value="" style="edgeStyle=elbowEdgeStyle;elbow=horizontal;strokeWidth=3;strokeColor=#ec7211;fontFamily=Helvetica;html=1;exitX=0.5;exitY=1;exitDx=0;exitDy=0;entryX=0.5;entryY=0;entryDx=0;entryDy=0;" parent="296" source="300" target="301" edge="1"><mxGeometry x="202.80897959183685" y="1213.8600000000001" width="131.97278911564624" height="100" as="geometry"><mxPoint x="558.3200000000002" y="1429" as="sourcePoint"/><mxPoint x="717.8649999999998" y="1589" as="targetPoint"/><Array as="points"/></mxGeometry></mxCell><mxCell id="306" value="" style="edgeStyle=elbowEdgeStyle;elbow=horizontal;strokeWidth=3;strokeColor=#ec7211;fontFamily=Helvetica;html=1;exitX=1;exitY=0.5;exitDx=0;exitDy=0;entryX=0;entryY=0.5;entryDx=0;entryDy=0;" parent="296" source="lfxFikTTnpEeHodoe_2D-364" target="292" edge="1"><mxGeometry x="-800.6599999999999" y="-1659" width="131.97278911564624" height="100" as="geometry"><mxPoint x="427.03500000000076" y="1581" as="sourcePoint"/><mxPoint x="579.9300000000001" y="1741" as="targetPoint"/><Array as="points"><mxPoint x="410" y="231"/><mxPoint x="819.3399999999999" y="1531"/><mxPoint x="1080" y="1381"/><mxPoint x="820" y="1531"/><mxPoint x="1389.3400000000001" y="1321"/><mxPoint x="949.3399999999999" y="1321"/><mxPoint x="859.3399999999999" y="1541"/></Array></mxGeometry></mxCell><mxCell id="307" value="Gated&lt;br&gt;Approval" style="shape=actor;whiteSpace=wrap;html=1;labelBackgroundColor=none;fontFamily=Helvetica;fontSize=18;fontColor=#ec7211;strokeColor=none;strokeWidth=2;fillColor=#ec7211;verticalAlign=middle;labelPosition=right;verticalLabelPosition=middle;align=left;" parent="296" vertex="1"><mxGeometry x="554.17" y="183.36" width="44.98" height="50" as="geometry"/></mxCell><mxCell id="308" value="" style="group" parent="296" vertex="1" connectable="0"><mxGeometry x="787.98" y="-9" width="450" height="400" as="geometry"/></mxCell><mxCell id="309" value="" style="strokeColor=#FFFFFF;fillColor=#D5DBDB;fontSize=18;strokeWidth=2;fontFamily=Helvetica;html=1;opacity=60;" parent="308" vertex="1"><mxGeometry width="450" height="400" as="geometry"/></mxCell><mxCell id="310" value="&lt;font style=&quot;font-size: 12px&quot;&gt;Stage&lt;/font&gt;&lt;span style=&quot;font-size: 12px&quot;&gt;&amp;nbsp;/ main&lt;/span&gt;" style="text;html=1;strokeColor=none;fillColor=none;align=center;verticalAlign=middle;whiteSpace=wrap;rounded=0;labelBackgroundColor=none;fontFamily=Helvetica;fontSize=18;fontColor=#000000;" parent="308" vertex="1"><mxGeometry x="6.009999999999991" y="3.3057851239669422" width="108" height="33.057851239669425" as="geometry"/></mxCell><mxCell id="311" value="Deploy" style="rounded=1;fillColor=#ec7211;strokeColor=none;strokeWidth=2;fontFamily=Helvetica;html=1;gradientColor=none;fontSize=20;fontColor=#FFFFFF" parent="308" vertex="1"><mxGeometry x="116.42000000000006" y="327" width="168.5" height="50" as="geometry"/></mxCell><mxCell id="312" value="Deployment" style="rounded=1;fillColor=#ec7211;strokeColor=none;strokeWidth=2;fontFamily=Helvetica;html=1;gradientColor=none;fontSize=20;fontColor=#FFFFFF" parent="308" vertex="1"><mxGeometry x="115.26" y="60" width="170.83" height="46.36" as="geometry"/></mxCell><mxCell id="313" value="&lt;font style=&quot;font-size: 36px&quot;&gt;8&lt;/font&gt;" style="ellipse;whiteSpace=wrap;html=1;aspect=fixed;fontFamily=Helvetica;fontSize=20;fontColor=#FFFFFF;strokeColor=#FFD966;strokeWidth=2;fillColor=#FFD966;" parent="308" vertex="1"><mxGeometry x="60.78" y="122" width="48" height="48" as="geometry"/></mxCell><mxCell id="314" value="" style="edgeStyle=elbowEdgeStyle;elbow=horizontal;strokeWidth=3;strokeColor=#ec7211;fontFamily=Helvetica;html=1;exitX=0.5;exitY=1;exitDx=0;exitDy=0;entryX=0.5;entryY=0;entryDx=0;entryDy=0;" parent="308" source="316" target="311" edge="1"><mxGeometry x="747.3389795918365" y="1299.8600000000001" width="131.97278911564624" height="100" as="geometry"><mxPoint x="200.67000000000007" y="208" as="sourcePoint"/><mxPoint x="941.1500000000001" y="1700" as="targetPoint"/><Array as="points"/></mxGeometry></mxCell><mxCell id="315" value="" style="edgeStyle=elbowEdgeStyle;elbow=horizontal;strokeWidth=3;strokeColor=#ec7211;fontFamily=Helvetica;html=1;exitX=0.5;exitY=1;exitDx=0;exitDy=0;entryX=0.5;entryY=0;entryDx=0;entryDy=0;" parent="308" source="312" target="316" edge="1"><mxGeometry x="737.3389795918365" y="1289.8600000000001" width="131.97278911564624" height="100" as="geometry"><mxPoint x="1311.1600000000003" y="1792.5" as="sourcePoint"/><mxPoint x="200.67000000000007" y="158" as="targetPoint"/><Array as="points"/></mxGeometry></mxCell><mxCell id="316" value="Gated Approval" style="shape=actor;whiteSpace=wrap;html=1;labelBackgroundColor=none;fontFamily=Helvetica;fontSize=18;fontColor=#ec7211;strokeColor=none;strokeWidth=2;fillColor=#ec7211;verticalAlign=middle;labelPosition=right;verticalLabelPosition=middle;align=left;" parent="308" vertex="1"><mxGeometry x="178.17999999999998" y="194" width="44.98" height="50" as="geometry"/></mxCell><mxCell id="317" value="" style="group" parent="296" vertex="1" connectable="0"><mxGeometry x="1240" y="-9" width="450" height="400" as="geometry"/></mxCell><mxCell id="318" value="" style="strokeColor=#FFFFFF;fillColor=#D5DBDB;fontSize=18;strokeWidth=2;fontFamily=Helvetica;html=1;opacity=60;" parent="317" vertex="1"><mxGeometry width="450" height="400" as="geometry"/></mxCell><mxCell id="319" value="&lt;span style=&quot;font-size: 12px&quot;&gt;Production / main&lt;/span&gt;" style="text;html=1;strokeColor=none;fillColor=none;align=center;verticalAlign=middle;whiteSpace=wrap;rounded=0;labelBackgroundColor=none;fontFamily=Helvetica;fontSize=18;fontColor=#000000;" parent="317" vertex="1"><mxGeometry x="6.01" y="3.31" width="113.99" height="33.06" as="geometry"/></mxCell><mxCell id="321" value="&lt;font style=&quot;font-size: 36px&quot;&gt;9&lt;/font&gt;" style="ellipse;whiteSpace=wrap;html=1;aspect=fixed;fontFamily=Helvetica;fontSize=20;fontColor=#FFFFFF;strokeColor=#FFD966;strokeWidth=2;fillColor=#FFD966;" parent="317" vertex="1"><mxGeometry x="62.01999999999998" y="122" width="49" height="49" as="geometry"/></mxCell><mxCell id="322" value="Deploy" style="rounded=1;fillColor=#ec7211;strokeColor=none;strokeWidth=2;fontFamily=Helvetica;html=1;gradientColor=none;fontSize=20;fontColor=#FFFFFF" parent="317" vertex="1"><mxGeometry x="133.25999999999976" y="327" width="168.5" height="50" as="geometry"/></mxCell><mxCell id="323" value="Deployment" style="rounded=1;fillColor=#ec7211;strokeColor=none;strokeWidth=2;fontFamily=Helvetica;html=1;gradientColor=none;fontSize=20;fontColor=#FFFFFF" parent="317" vertex="1"><mxGeometry x="131.92999999999992" y="60" width="170.83" height="46.36" as="geometry"/></mxCell><mxCell id="325" value="" style="edgeStyle=elbowEdgeStyle;elbow=horizontal;strokeWidth=3;strokeColor=#ec7211;fontFamily=Helvetica;html=1;exitX=0.5;exitY=1;exitDx=0;exitDy=0;entryX=0.5;entryY=0;entryDx=0;entryDy=0;" parent="317" source="327" target="322" edge="1"><mxGeometry x="1043.3489795918367" y="1299.8600000000001" width="131.97278911564624" height="100" as="geometry"><mxPoint x="217.50999999999976" y="208" as="sourcePoint"/><mxPoint x="1237.1599999999999" y="1700" as="targetPoint"/><Array as="points"/></mxGeometry></mxCell><mxCell id="326" value="" style="edgeStyle=orthogonalEdgeStyle;elbow=horizontal;strokeWidth=3;strokeColor=#ec7211;fontFamily=Helvetica;html=1;entryX=0.5;entryY=0;entryDx=0;entryDy=0;" parent="317" source="323" target="327" edge="1"><mxGeometry x="1033.3489795918367" y="1289.8600000000001" width="131.97278911564624" height="100" as="geometry"><mxPoint x="218" y="110" as="sourcePoint"/><mxPoint x="217.50999999999976" y="158" as="targetPoint"/></mxGeometry></mxCell><mxCell id="327" value="Gated Approval" style="shape=actor;whiteSpace=wrap;html=1;labelBackgroundColor=none;fontFamily=Helvetica;fontSize=18;fontColor=#ec7211;strokeColor=none;strokeWidth=2;fillColor=#ec7211;verticalAlign=middle;labelPosition=right;verticalLabelPosition=middle;align=left;" parent="317" vertex="1"><mxGeometry x="195.03" y="196" width="44.98" height="50" as="geometry"/></mxCell><mxCell id="333" value="" style="edgeStyle=elbowEdgeStyle;elbow=horizontal;strokeWidth=3;strokeColor=#ec7211;fontFamily=Helvetica;html=1;entryX=0;entryY=0.5;entryDx=0;entryDy=0;exitX=1;exitY=0.5;exitDx=0;exitDy=0;" parent="296" source="292" target="312" edge="1"><mxGeometry x="402.22897959183683" y="20.860000000000127" width="131.97278911564624" height="100" as="geometry"><mxPoint x="512.1199999999999" y="190.5" as="sourcePoint"/><mxPoint x="1123.0600000000004" y="143" as="targetPoint"/><Array as="points"><mxPoint x="790" y="71"/><mxPoint x="1086.0500000000002" y="241"/><mxPoint x="1179.0500000000002" y="231"/><mxPoint x="996.0500000000002" y="231"/><mxPoint x="886.0500000000002" y="301"/><mxPoint x="596.0500000000002" y="251"/><mxPoint x="594.0500000000002" y="251"/></Array></mxGeometry></mxCell><mxCell id="345" value="" style="edgeStyle=elbowEdgeStyle;elbow=horizontal;strokeWidth=3;strokeColor=#ec7211;fontFamily=Helvetica;html=1;entryX=0;entryY=0.5;entryDx=0;entryDy=0;exitX=1;exitY=0.5;exitDx=0;exitDy=0;" parent="296" source="312" target="323" edge="1"><mxGeometry x="1058.4389795918369" y="-34.13999999999987" width="131.97278911564624" height="100" as="geometry"><mxPoint x="1326.42" y="271" as="sourcePoint"/><mxPoint x="1815.3900000000003" y="271" as="targetPoint"/><Array as="points"><mxPoint x="1230" y="81"/><mxPoint x="1742.2600000000002" y="186"/><mxPoint x="1835.2600000000002" y="176"/><mxPoint x="1652.2600000000002" y="176"/><mxPoint x="1542.2600000000002" y="246"/><mxPoint x="1252.2600000000002" y="196"/><mxPoint x="1250.2600000000002" y="196"/></Array></mxGeometry></mxCell><mxCell id="298" value="&lt;font style=&quot;font-size: 12px&quot;&gt;Develop&lt;/font&gt;&lt;span style=&quot;font-size: 12px&quot;&gt;&amp;nbsp;/&amp;nbsp;&lt;/span&gt;&lt;span style=&quot;font-size: 12px&quot;&gt;main&lt;/span&gt;" style="text;html=1;strokeColor=none;fillColor=none;align=center;verticalAlign=middle;whiteSpace=wrap;rounded=0;labelBackgroundColor=none;fontFamily=Helvetica;fontSize=18;fontColor=#000000;" parent="296" vertex="1"><mxGeometry x="-100.99000000000001" y="4.305785123966928" width="108" height="33.057851239669425" as="geometry"/></mxCell><mxCell id="lfxFikTTnpEeHodoe_2D-364" value="Merge to main" style="rounded=1;fillColor=#ec7211;strokeColor=none;strokeWidth=2;fontFamily=Helvetica;html=1;gradientColor=none;fontSize=20;fontColor=#FFFFFF" vertex="1" parent="296"><mxGeometry x="102.00000000000023" y="318" width="170.83" height="50" as="geometry"/></mxCell><mxCell id="lfxFikTTnpEeHodoe_2D-365" value="" style="edgeStyle=elbowEdgeStyle;elbow=horizontal;strokeWidth=3;strokeColor=#ec7211;fontFamily=Helvetica;html=1;exitX=0.5;exitY=1;exitDx=0;exitDy=0;entryX=0.5;entryY=0;entryDx=0;entryDy=0;" edge="1" parent="296" source="301" target="lfxFikTTnpEeHodoe_2D-364"><mxGeometry x="-587.1910204081631" y="-789.1399999999999" width="131.97278911564624" height="100" as="geometry"><mxPoint x="197.41499999999996" y="209" as="sourcePoint"/><mxPoint x="197.41499999999996" y="242" as="targetPoint"/><Array as="points"/></mxGeometry></mxCell><mxCell id="a8QK_xVsvoP_7gLjCRSt-401" value="&lt;font style=&quot;font-size: 36px&quot;&gt;5&lt;/font&gt;" style="ellipse;whiteSpace=wrap;html=1;aspect=fixed;fontFamily=Helvetica;fontSize=20;fontColor=#FFFFFF;strokeColor=#FFD966;strokeWidth=2;fillColor=#FFD966;" vertex="1" parent="296"><mxGeometry x="26.000000000000046" y="149.7" width="48.6" height="48.6" as="geometry"/></mxCell><mxCell id="lfxFikTTnpEeHodoe_2D-366" value="&lt;font style=&quot;font-size: 36px&quot;&gt;6&lt;/font&gt;" style="ellipse;whiteSpace=wrap;html=1;aspect=fixed;fontFamily=Helvetica;fontSize=20;fontColor=#FFFFFF;strokeColor=#FFD966;strokeWidth=2;fillColor=#FFD966;" vertex="1" parent="296"><mxGeometry x="26" y="319.39999999999964" width="48.6" height="48.6" as="geometry"/></mxCell><mxCell id="328" value="hotfix/*" style="strokeColor=none;fillColor=#D13212;fontSize=24;strokeWidth=2;horizontal=0;fontFamily=Helvetica;html=1;fontColor=#FFFFFF;fontStyle=0" parent="1" vertex="1"><mxGeometry x="150" y="1601" width="90" height="400" as="geometry"/></mxCell><mxCell id="334" value="" style="group" parent="1" vertex="1" connectable="0"><mxGeometry x="1170" y="1199" width="449.48" height="400" as="geometry"/></mxCell><mxCell id="335" value="" style="strokeColor=#FFFFFF;fillColor=#e6e9e9;fontSize=18;strokeWidth=2;fontFamily=Helvetica;html=1;opacity=90;" parent="334" vertex="1"><mxGeometry x="-28.764498190484602" width="449.48" height="400" as="geometry"/></mxCell><mxCell id="336" value="&lt;span style=&quot;font-size: 12px&quot;&gt;Test /&amp;nbsp;&lt;/span&gt;&lt;span style=&quot;font-size: 12px&quot;&gt;bugfix&lt;/span&gt;" style="text;html=1;strokeColor=none;fillColor=none;align=center;verticalAlign=middle;whiteSpace=wrap;rounded=0;labelBackgroundColor=none;fontFamily=Helvetica;fontSize=18;fontColor=#000000;" parent="334" vertex="1"><mxGeometry x="-26.106261805984644" width="95.26008297290143" height="30" as="geometry"/></mxCell><mxCell id="352" value="Production Account" style="strokeColor=#BAC8D3;fillColor=#5d7f99;fontSize=19;strokeWidth=2;fontFamily=Helvetica;html=1;labelBackgroundColor=none;fontColor=#FFFFFF;" parent="1" vertex="1"><mxGeometry x="2040" y="760" width="450" height="40" as="geometry"/></mxCell><mxCell id="354" value="" style="group" parent="1" vertex="1" connectable="0"><mxGeometry x="240" y="1601" width="449" height="400" as="geometry"/></mxCell><mxCell id="355" value="" style="strokeColor=#FFFFFF;fillColor=#AAB7B8;fontSize=18;strokeWidth=2;fontFamily=Helvetica;html=1;opacity=90;labelBackgroundColor=none;" parent="354" vertex="1"><mxGeometry width="449" height="400" as="geometry"/></mxCell><mxCell id="356" value="&lt;font style=&quot;font-size: 12px&quot;&gt;Sandbox&lt;/font&gt;&lt;span style=&quot;font-size: 12px&quot;&gt;&amp;nbsp;/ hotfix&lt;/span&gt;" style="text;html=1;strokeColor=none;fillColor=none;align=center;verticalAlign=middle;whiteSpace=wrap;rounded=0;labelBackgroundColor=none;fontFamily=Helvetica;fontSize=18;fontColor=#000000;" parent="354" vertex="1"><mxGeometry x="5.996644444444435" y="3.3057851239668707" width="107.75999999999999" height="33.057851239669425" as="geometry"/></mxCell><mxCell id="yH-A3wYIznov1LGlbIlL-364" value="&lt;font style=&quot;font-size: 18px&quot;&gt;HF1&lt;/font&gt;" style="ellipse;whiteSpace=wrap;html=1;aspect=fixed;fontFamily=Helvetica;fontSize=18;fontColor=#FFFFFF;strokeColor=none;strokeWidth=2;fillColor=#FFCCCC;" vertex="1" parent="354"><mxGeometry x="173.3939015134604" y="109.00000000000023" width="48" height="48" as="geometry"/></mxCell><mxCell id="yH-A3wYIznov1LGlbIlL-365" value="&lt;font style=&quot;font-size: 18px&quot;&gt;HF2&lt;/font&gt;&lt;span style=&quot;color: rgba(0, 0, 0, 0); font-family: monospace; font-size: 0px; text-align: start;&quot;&gt;%3CmxGraphModel%3E%3Croot%3E%3CmxCell%20id%3D%220%22%2F%3E%3CmxCell%20id%3D%221%22%20parent%3D%220%22%2F%3E%3CmxCell%20id%3D%222%22%20value%3D%22%26lt%3Bfont%20style%3D%26quot%3Bfont-size%3A%2018px%26quot%3B%26gt%3BHF1%26lt%3B%2Ffont%26gt%3B%22%20style%3D%22ellipse%3BwhiteSpace%3Dwrap%3Bhtml%3D1%3Baspect%3Dfixed%3BfontFamily%3DHelvetica%3BfontSize%3D18%3BfontColor%3D%23FFFFFF%3BstrokeColor%3Dnone%3BstrokeWidth%3D2%3BfillColor%3D%23FFCCCC%3B%22%20vertex%3D%221%22%20parent%3D%221%22%3E%3CmxGeometry%20x%3D%22413%22%20y%3D%221710.0000000000002%22%20width%3D%2248%22%20height%3D%2248%22%20as%3D%22geometry%22%2F%3E%3C%2FmxCell%3E%3C%2Froot%3E%3C%2FmxGraphModel%3E&lt;/span&gt;" style="ellipse;whiteSpace=wrap;html=1;aspect=fixed;fontFamily=Helvetica;fontSize=18;fontColor=#FFFFFF;strokeColor=none;strokeWidth=2;fillColor=#FFCCCC;" vertex="1" parent="354"><mxGeometry x="88.20036608777177" y="217.00000000000023" width="48" height="48" as="geometry"/></mxCell><mxCell id="282" value="" style="edgeStyle=elbowEdgeStyle;elbow=horizontal;strokeWidth=3;strokeColor=#0073BB;fontFamily=Helvetica;html=1;exitX=0.5;exitY=1;exitDx=0;exitDy=0;entryX=0.5;entryY=0;entryDx=0;entryDy=0;" parent="1" target="299" edge="1"><mxGeometry x="806.0589795918368" y="1705.8600000000001" width="131.97278911564624" height="100" as="geometry"><mxPoint x="989.6350000000002" y="917" as="sourcePoint"/><mxPoint x="986" y="2026" as="targetPoint"/><Array as="points"><mxPoint x="989" y="1925"/><mxPoint x="991" y="1506"/><mxPoint x="832" y="1517"/></Array></mxGeometry></mxCell><mxCell id="a8QK_xVsvoP_7gLjCRSt-375" value="" style="edgeStyle=elbowEdgeStyle;elbow=horizontal;strokeWidth=3;strokeColor=#545b64;fontFamily=Helvetica;html=1;exitX=1;exitY=0.5;exitDx=0;exitDy=0;entryX=0;entryY=0.75;entryDx=0;entryDy=0;" edge="1" parent="1" source="a8QK_xVsvoP_7gLjCRSt-370" target="a8QK_xVsvoP_7gLjCRSt-374"><mxGeometry x="352.38897959183674" y="1857.75" width="131.97278911564624" height="100" as="geometry"><mxPoint x="1529.4500000000003" y="2127.75" as="sourcePoint"/><mxPoint x="718.7293017918619" y="1295.5" as="targetPoint"/><Array as="points"><mxPoint x="565.94" y="1258"/></Array></mxGeometry></mxCell><mxCell id="a8QK_xVsvoP_7gLjCRSt-376" value="" style="edgeStyle=elbowEdgeStyle;elbow=horizontal;strokeWidth=3;strokeColor=#545b64;fontFamily=Helvetica;html=1;entryX=0;entryY=0;entryDx=0;entryDy=0;exitX=0.5;exitY=1;exitDx=0;exitDy=0;" edge="1" parent="1" source="a8QK_xVsvoP_7gLjCRSt-374" target="299"><mxGeometry x="786.9989795918368" y="2102.86" width="131.97278911564624" height="100" as="geometry"><mxPoint x="813.0668426162947" y="1320.5" as="sourcePoint"/><mxPoint x="919.5200000000427" y="2536" as="targetPoint"/><Array as="points"><mxPoint x="879" y="1707"/></Array></mxGeometry></mxCell><mxCell id="a8QK_xVsvoP_7gLjCRSt-406" value="Develop Code" style="shape=actor;whiteSpace=wrap;html=1;labelBackgroundColor=none;fontFamily=Helvetica;fontSize=18;fontColor=#545b64;strokeColor=none;strokeWidth=2;fillColor=#545b64;verticalAlign=top;labelPosition=center;verticalLabelPosition=bottom;align=center;" vertex="1" parent="1"><mxGeometry x="273" y="1868" width="64.67" height="70" as="geometry"/></mxCell><mxCell id="a8QK_xVsvoP_7gLjCRSt-407" value="" style="edgeStyle=elbowEdgeStyle;elbow=horizontal;strokeWidth=3;strokeColor=#545b64;fontFamily=Helvetica;html=1;entryX=0.75;entryY=0.25;entryDx=0;entryDy=0;entryPerimeter=0;" edge="1" parent="1" target="a8QK_xVsvoP_7gLjCRSt-406"><mxGeometry x="-1346.5522451990616" y="-1565.25" width="91.27169702313125" height="100" as="geometry"><mxPoint x="419.5865489418593" y="1885" as="sourcePoint"/><mxPoint x="-855.152673705565" y="-1719" as="targetPoint"/><Array as="points"><mxPoint x="378.09085988288996" y="1878"/></Array></mxGeometry></mxCell><mxCell id="a8QK_xVsvoP_7gLjCRSt-409" value="Manual Deploy" style="shape=actor;whiteSpace=wrap;html=1;labelBackgroundColor=none;fontFamily=Helvetica;fontSize=18;fontColor=#545b64;strokeColor=none;strokeWidth=2;fillColor=#545b64;verticalAlign=top;labelPosition=center;verticalLabelPosition=bottom;align=center;" vertex="1" parent="1"><mxGeometry x="412.67" y="1868" width="63.27" height="70" as="geometry"/></mxCell><mxCell id="a8QK_xVsvoP_7gLjCRSt-410" value="" style="edgeStyle=elbowEdgeStyle;elbow=horizontal;strokeWidth=3;strokeColor=#545b64;fontFamily=Helvetica;html=1;entryX=0;entryY=0.75;entryDx=0;entryDy=0;exitX=1;exitY=0.75;exitDx=0;exitDy=0;" edge="1" parent="1" source="a8QK_xVsvoP_7gLjCRSt-406" target="a8QK_xVsvoP_7gLjCRSt-409"><mxGeometry x="-1215.1492298456567" y="-1427.75" width="91.27169702313125" height="100" as="geometry"><mxPoint x="-840.539275208631" y="-1818.0000000000005" as="sourcePoint"/><mxPoint x="-840.539275208631" y="-1783.0000000000005" as="targetPoint"/><Array as="points"/></mxGeometry></mxCell><mxCell id="a8QK_xVsvoP_7gLjCRSt-411" value="bugfix/*" style="ellipse;whiteSpace=wrap;html=1;aspect=fixed;fontFamily=Helvetica;fontSize=20;fontColor=#FFFFFF;strokeColor=#545b64;strokeWidth=2;fillColor=#545b64;" vertex="1" parent="1"><mxGeometry x="337.67125" y="1658" width="75" height="75" as="geometry"/></mxCell><mxCell id="a8QK_xVsvoP_7gLjCRSt-412" value="" style="edgeStyle=elbowEdgeStyle;elbow=horizontal;strokeWidth=3;strokeColor=#545b64;fontFamily=Helvetica;html=1;entryX=0.5;entryY=0;entryDx=0;entryDy=0;exitX=0;exitY=0.5;exitDx=0;exitDy=0;" edge="1" parent="1" source="a8QK_xVsvoP_7gLjCRSt-411" target="a8QK_xVsvoP_7gLjCRSt-406"><mxGeometry x="-1245.807628112059" y="-1173" width="91.27169702313125" height="100" as="geometry"><mxPoint x="-730.6656065286551" y="-1936" as="sourcePoint"/><mxPoint x="-774.8377675319285" y="-1930.5000000000005" as="targetPoint"/><Array as="points"><mxPoint x="305.94" y="1778"/><mxPoint x="332.445601918023" y="2438"/><mxPoint x="314.9413370833142" y="2548"/></Array></mxGeometry></mxCell><mxCell id="a8QK_xVsvoP_7gLjCRSt-415" value="" style="edgeStyle=elbowEdgeStyle;elbow=horizontal;strokeWidth=3;strokeColor=#d13212;fontFamily=Helvetica;html=1;exitX=1;exitY=0.5;exitDx=0;exitDy=0;entryX=0;entryY=0.75;entryDx=0;entryDy=0;" edge="1" parent="1" source="a8QK_xVsvoP_7gLjCRSt-411" target="a8QK_xVsvoP_7gLjCRSt-405"><mxGeometry x="-327.61102040816326" y="656.75" width="131.97278911564624" height="100" as="geometry"><mxPoint x="849.4500000000003" y="926.75" as="sourcePoint"/><mxPoint x="38.72930179186187" y="94.5" as="targetPoint"/><Array as="points"><mxPoint x="575.94" y="1658"/></Array></mxGeometry></mxCell><mxCell id="a8QK_xVsvoP_7gLjCRSt-417" value="Develop Code" style="shape=actor;whiteSpace=wrap;html=1;labelBackgroundColor=none;fontFamily=Helvetica;fontSize=18;fontColor=#d13212;strokeColor=none;strokeWidth=2;fillColor=#d13212;verticalAlign=top;labelPosition=center;verticalLabelPosition=bottom;align=center;" vertex="1" parent="1"><mxGeometry x="273" y="1868" width="64.67" height="70" as="geometry"/></mxCell><mxCell id="a8QK_xVsvoP_7gLjCRSt-418" value="" style="edgeStyle=elbowEdgeStyle;elbow=horizontal;strokeWidth=3;strokeColor=#d13212;fontFamily=Helvetica;html=1;entryX=0.75;entryY=0.25;entryDx=0;entryDy=0;entryPerimeter=0;" edge="1" parent="1" target="a8QK_xVsvoP_7gLjCRSt-417"><mxGeometry x="-656.5522451990616" y="35.75" width="91.27169702313125" height="100" as="geometry"><mxPoint x="419.5865489418593" y="1885" as="sourcePoint"/><mxPoint x="-165.15267370556504" y="-118" as="targetPoint"/><Array as="points"><mxPoint x="378.09085988288996" y="1878"/></Array></mxGeometry></mxCell><mxCell id="a8QK_xVsvoP_7gLjCRSt-420" value="Manual Deploy" style="shape=actor;whiteSpace=wrap;html=1;labelBackgroundColor=none;fontFamily=Helvetica;fontSize=18;fontColor=#d13212;strokeColor=none;strokeWidth=2;fillColor=#d13212;verticalAlign=top;labelPosition=center;verticalLabelPosition=bottom;align=center;" vertex="1" parent="1"><mxGeometry x="412.67" y="1868" width="63.27" height="70" as="geometry"/></mxCell><mxCell id="a8QK_xVsvoP_7gLjCRSt-421" value="" style="edgeStyle=elbowEdgeStyle;elbow=horizontal;strokeWidth=3;strokeColor=#d13212;fontFamily=Helvetica;html=1;entryX=0;entryY=0.75;entryDx=0;entryDy=0;exitX=1;exitY=0.75;exitDx=0;exitDy=0;" edge="1" parent="1" source="a8QK_xVsvoP_7gLjCRSt-417" target="a8QK_xVsvoP_7gLjCRSt-420"><mxGeometry x="-525.1492298456567" y="173.25" width="91.27169702313125" height="100" as="geometry"><mxPoint x="-150.539275208631" y="-217.00000000000045" as="sourcePoint"/><mxPoint x="-150.539275208631" y="-182.00000000000045" as="targetPoint"/><Array as="points"/></mxGeometry></mxCell><mxCell id="a8QK_xVsvoP_7gLjCRSt-422" value="hotfix/*" style="ellipse;whiteSpace=wrap;html=1;aspect=fixed;fontFamily=Helvetica;fontSize=20;fontColor=#FFFFFF;strokeColor=#d13212;strokeWidth=2;fillColor=#d13212;" vertex="1" parent="1"><mxGeometry x="337.67125" y="1658" width="75" height="75" as="geometry"/></mxCell><mxCell id="a8QK_xVsvoP_7gLjCRSt-423" value="" style="edgeStyle=elbowEdgeStyle;elbow=horizontal;strokeWidth=3;strokeColor=#d13212;fontFamily=Helvetica;html=1;entryX=0.5;entryY=0;entryDx=0;entryDy=0;exitX=0;exitY=0.5;exitDx=0;exitDy=0;" edge="1" parent="1" source="a8QK_xVsvoP_7gLjCRSt-422" target="a8QK_xVsvoP_7gLjCRSt-417"><mxGeometry x="-555.8076281120591" y="428" width="91.27169702313125" height="100" as="geometry"><mxPoint x="-40.665606528655076" y="-335" as="sourcePoint"/><mxPoint x="-84.83776753192853" y="-329.50000000000045" as="targetPoint"/><Array as="points"><mxPoint x="305.94" y="1778"/><mxPoint x="332.445601918023" y="2438"/><mxPoint x="314.9413370833142" y="2548"/></Array></mxGeometry></mxCell><mxCell id="a8QK_xVsvoP_7gLjCRSt-427" value="" style="edgeStyle=elbowEdgeStyle;elbow=horizontal;strokeWidth=3;strokeColor=#d13212;fontFamily=Helvetica;html=1;entryX=0.024;entryY=0.618;entryDx=0;entryDy=0;exitX=0.5;exitY=1;exitDx=0;exitDy=0;entryPerimeter=0;fontColor=#d13212;" edge="1" parent="1" source="a8QK_xVsvoP_7gLjCRSt-405" target="299"><mxGeometry x="796.9989795918368" y="2502.86" width="131.97278911564624" height="100" as="geometry"><mxPoint x="795.6349999999993" y="1714" as="sourcePoint"/><mxPoint x="966.7601948464908" y="2507.180194846491" as="targetPoint"/><Array as="points"><mxPoint x="767" y="1900"/><mxPoint x="760" y="1892"/><mxPoint x="770" y="1914"/><mxPoint x="779" y="1928"/></Array></mxGeometry></mxCell></root></mxGraphModel></diagram></mxfile>